<?xml version="1.0" encoding="UTF-8" standalone="no"?>
<!DOCTYPE svg PUBLIC "-//W3C//DTD SVG 1.0//EN" "http://www.w3.org/TR/2001/PR-SVG-20010719/DTD/svg10.dtd">
<svg width="49cm" height="64cm" viewBox="399 18 980 1279" xmlns="http://www.w3.org/2000/svg" xmlns:xlink="http://www.w3.org/1999/xlink">
  <ellipse style="fill: none; fill-opacity:0; stroke-width: 2; stroke-dasharray: 4; stroke: #000000" cx="840" cy="200" rx="180" ry="180"/>
  <g>
    <rect style="fill: #d9d9cd" x="400" y="180" width="40" height="33.3333"/>
    <rect style="fill: none; fill-opacity:0; stroke-width: 2; stroke: #000000" x="400" y="180" width="40" height="33.3333"/>
    <rect style="fill: none; fill-opacity:0; stroke-width: 0.2; stroke: #000000" x="400" y="180" width="40" height="33.3333"/>
    <rect style="fill: #a1a1a1" x="402.222" y="182.222" width="35.5556" height="26.6667"/>
    <rect style="fill: none; fill-opacity:0; stroke-width: 2; stroke: #000000" x="402.222" y="182.222" width="35.5556" height="26.6667"/>
    <rect style="fill: none; fill-opacity:0; stroke-width: 0.2; stroke: #000000" x="402.222" y="182.222" width="35.5556" height="26.6667"/>
    <polygon style="fill: #d9d9cd" points="406.667,213.333 433.333,213.333 426.667,215.556 413.333,215.556 "/>
    <polygon style="fill: none; fill-opacity:0; stroke-width: 2; stroke: #000000" points="406.667,213.333 433.333,213.333 426.667,215.556 413.333,215.556 "/>
    <polygon style="fill: none; fill-opacity:0; stroke-width: 0.2; stroke: #000000" points="406.667,213.333 433.333,213.333 426.667,215.556 413.333,215.556 "/>
    <rect style="fill: #d9d9cd" x="413.333" y="215.556" width="13.3333" height="2.22222"/>
    <rect style="fill: none; fill-opacity:0; stroke-width: 2; stroke: #000000" x="413.333" y="215.556" width="13.3333" height="2.22222"/>
    <rect style="fill: none; fill-opacity:0; stroke-width: 0.2; stroke: #000000" x="413.333" y="215.556" width="13.3333" height="2.22222"/>
    <rect style="fill: #d9d9cd" x="406.667" y="217.778" width="26.6667" height="2.22222"/>
    <rect style="fill: none; fill-opacity:0; stroke-width: 2; stroke: #000000" x="406.667" y="217.778" width="26.6667" height="2.22222"/>
    <rect style="fill: none; fill-opacity:0; stroke-width: 0.2; stroke: #000000" x="406.667" y="217.778" width="26.6667" height="2.22222"/>
  </g>
  <g>
    <rect style="fill: #ffffff" x="760" y="140" width="66.5" height="36"/>
    <rect style="fill: none; fill-opacity:0; stroke-width: 2; stroke: #000000" x="760" y="140" width="66.5" height="36"/>
    <text font-size="12.8" style="fill: #000000;text-anchor:middle;font-family:monospace;font-style:normal;font-weight:normal" x="793.25" y="161.2">Shard</text>
  </g>
  <g>
    <rect style="fill: #ffffff" x="880" y="180" width="66.5" height="36"/>
    <rect style="fill: none; fill-opacity:0; stroke-width: 2; stroke: #000000" x="880" y="180" width="66.5" height="36"/>
    <text font-size="12.8" style="fill: #000000;text-anchor:middle;font-family:monospace;font-style:normal;font-weight:normal" x="913.25" y="201.2">Shard</text>
  </g>
  <g>
    <rect style="fill: #ffffff" x="800" y="240" width="66.5" height="36"/>
    <rect style="fill: none; fill-opacity:0; stroke-width: 2; stroke: #000000" x="800" y="240" width="66.5" height="36"/>
    <text font-size="12.8" style="fill: #000000;text-anchor:middle;font-family:monospace;font-style:normal;font-weight:normal" x="833.25" y="261.2">Shard</text>
  </g>
  <g>
    <rect style="fill: #ffffff" x="1240" y="140.294" width="138" height="121.765"/>
    <ellipse style="fill: #ffffff" cx="1309" cy="262.059" rx="69" ry="20.2941"/>
    <ellipse style="fill: #ffffff" cx="1309" cy="140.294" rx="69" ry="20.2941"/>
    <ellipse style="fill: none; fill-opacity:0; stroke-width: 2; stroke: #000000" cx="1309" cy="140.294" rx="69" ry="20.2941"/>
    <path style="fill: none; fill-opacity:0; stroke-width: 2; stroke: #000000" d="M 1378 140.294 L 1378,262.059 C 1378,273.267 1347.11,282.353 1309,282.353 C 1270.89,282.353 1240,273.267 1240,262.059 L 1240,140.294"/>
    <text font-size="12.8" style="fill: #000000;text-anchor:middle;font-family:sans-serif;font-style:normal;font-weight:normal" x="1309" y="295.153">
      <tspan x="1309" y="295.153"></tspan>
    </text>
  </g>
  <line style="fill: none; fill-opacity:0; stroke-width: 2; stroke: #000000" x1="440" y1="200" x2="659.019" y2="200"/>
  <line style="fill: none; fill-opacity:0; stroke-width: 2; stroke: #000000" x1="1021.01" y1="200.443" x2="1239" y2="200.976"/>
  <text font-size="22.5778" style="fill: #000000;text-anchor:start;font-family:sans-serif;font-style:normal;font-weight:normal" x="400" y="80">
    <tspan x="400" y="80">Client</tspan>
  </text>
  <text font-size="22.5778" style="fill: #000000;text-anchor:start;font-family:sans-serif;font-style:normal;font-weight:normal" x="800" y="80">
    <tspan x="800" y="80">Server(s)</tspan>
  </text>
  <text font-size="12.8" style="fill: #000000;text-anchor:start;font-family:sans-serif;font-style:normal;font-weight:normal" x="1260" y="40">
    <tspan x="1260" y="40"></tspan>
  </text>
  <text font-size="22.5778" style="fill: #000000;text-anchor:start;font-family:sans-serif;font-style:normal;font-weight:normal" x="1260" y="80">
    <tspan x="1260" y="80">Database</tspan>
  </text>
  <g>
    <polygon style="fill: #ffffff" points="810,520 810,580 780,580 840,640 900,580 870,580 870,520 "/>
    <polygon style="fill: none; fill-opacity:0; stroke-width: 2; stroke: #000000" points="810,520 810,580 780,580 840,640 900,580 870,580 870,520 "/>
    <polygon style="fill: none; fill-opacity:0; stroke-width: 2; stroke: #000000" points="810,520 810,580 780,580 840,640 900,580 870,580 870,520 "/>
  </g>
  <ellipse style="fill: none; fill-opacity:0; stroke-width: 2; stroke-dasharray: 4; stroke: #000000" cx="840" cy="1020" rx="180" ry="180"/>
  <g>
    <rect style="fill: #d9d9cd" x="400" y="1000" width="40" height="33.3333"/>
    <rect style="fill: none; fill-opacity:0; stroke-width: 2; stroke: #000000" x="400" y="1000" width="40" height="33.3333"/>
    <rect style="fill: none; fill-opacity:0; stroke-width: 0.2; stroke: #000000" x="400" y="1000" width="40" height="33.3333"/>
    <rect style="fill: #a1a1a1" x="402.222" y="1002.22" width="35.5556" height="26.6667"/>
    <rect style="fill: none; fill-opacity:0; stroke-width: 2; stroke: #000000" x="402.222" y="1002.22" width="35.5556" height="26.6667"/>
    <rect style="fill: none; fill-opacity:0; stroke-width: 0.2; stroke: #000000" x="402.222" y="1002.22" width="35.5556" height="26.6667"/>
    <polygon style="fill: #d9d9cd" points="406.667,1033.33 433.333,1033.33 426.667,1035.56 413.333,1035.56 "/>
    <polygon style="fill: none; fill-opacity:0; stroke-width: 2; stroke: #000000" points="406.667,1033.33 433.333,1033.33 426.667,1035.56 413.333,1035.56 "/>
    <polygon style="fill: none; fill-opacity:0; stroke-width: 0.2; stroke: #000000" points="406.667,1033.33 433.333,1033.33 426.667,1035.56 413.333,1035.56 "/>
    <rect style="fill: #d9d9cd" x="413.333" y="1035.56" width="13.3333" height="2.22222"/>
    <rect style="fill: none; fill-opacity:0; stroke-width: 2; stroke: #000000" x="413.333" y="1035.56" width="13.3333" height="2.22222"/>
    <rect style="fill: none; fill-opacity:0; stroke-width: 0.2; stroke: #000000" x="413.333" y="1035.56" width="13.3333" height="2.22222"/>
    <rect style="fill: #d9d9cd" x="406.667" y="1037.78" width="26.6667" height="2.22222"/>
    <rect style="fill: none; fill-opacity:0; stroke-width: 2; stroke: #000000" x="406.667" y="1037.78" width="26.6667" height="2.22222"/>
    <rect style="fill: none; fill-opacity:0; stroke-width: 0.2; stroke: #000000" x="406.667" y="1037.78" width="26.6667" height="2.22222"/>
  </g>
  <g>
    <rect style="fill: #ffffff" x="800" y="1020" width="81.9" height="36"/>
    <rect style="fill: none; fill-opacity:0; stroke-width: 2; stroke: #000000" x="800" y="1020" width="81.9" height="36"/>
    <text font-size="12.8" style="fill: #000000;text-anchor:middle;font-family:monospace;font-style:normal;font-weight:normal" x="840.95" y="1041.2">Map Srv</text>
  </g>
  <g>
    <rect style="fill: #ffffff" x="900" y="1040" width="81.9" height="36"/>
    <rect style="fill: none; fill-opacity:0; stroke-width: 2; stroke: #000000" x="900" y="1040" width="81.9" height="36"/>
    <text font-size="12.8" style="fill: #000000;text-anchor:middle;font-family:monospace;font-style:normal;font-weight:normal" x="940.95" y="1061.2">Map Srv</text>
  </g>
  <g>
    <rect style="fill: #ffffff" x="780" y="1080" width="81.9" height="36"/>
    <rect style="fill: none; fill-opacity:0; stroke-width: 2; stroke: #000000" x="780" y="1080" width="81.9" height="36"/>
    <text font-size="12.8" style="fill: #000000;text-anchor:middle;font-family:monospace;font-style:normal;font-weight:normal" x="820.95" y="1101.2">Map Srv</text>
  </g>
  <g>
    <rect style="fill: #ffffff" x="1240" y="960.294" width="138" height="121.765"/>
    <ellipse style="fill: #ffffff" cx="1309" cy="1082.06" rx="69" ry="20.2941"/>
    <ellipse style="fill: #ffffff" cx="1309" cy="960.294" rx="69" ry="20.2941"/>
    <ellipse style="fill: none; fill-opacity:0; stroke-width: 2; stroke: #000000" cx="1309" cy="960.294" rx="69" ry="20.2941"/>
    <path style="fill: none; fill-opacity:0; stroke-width: 2; stroke: #000000" d="M 1378 960.294 L 1378,1082.06 C 1378,1093.27 1347.11,1102.35 1309,1102.35 C 1270.89,1102.35 1240,1093.27 1240,1082.06 L 1240,960.294"/>
    <text font-size="12.8" style="fill: #000000;text-anchor:middle;font-family:sans-serif;font-style:normal;font-weight:normal" x="1309" y="1115.15">
      <tspan x="1309" y="1115.15"></tspan>
    </text>
  </g>
  <line style="fill: none; fill-opacity:0; stroke-width: 2; stroke: #000000" x1="440" y1="1020" x2="659.019" y2="1020"/>
  <line style="fill: none; fill-opacity:0; stroke-width: 2; stroke: #000000" x1="1021.01" y1="1020.44" x2="1239" y2="1020.98"/>
  <text font-size="22.5778" style="fill: #000000;text-anchor:start;font-family:sans-serif;font-style:normal;font-weight:normal" x="400" y="900">
    <tspan x="400" y="900">Client</tspan>
  </text>
  <text font-size="22.5778" style="fill: #000000;text-anchor:start;font-family:sans-serif;font-style:normal;font-weight:normal" x="800" y="900">
    <tspan x="800" y="900">Server(s)</tspan>
  </text>
  <text font-size="12.8" style="fill: #000000;text-anchor:start;font-family:sans-serif;font-style:normal;font-weight:normal" x="1260" y="860">
    <tspan x="1260" y="860"></tspan>
  </text>
  <text font-size="22.5778" style="fill: #000000;text-anchor:start;font-family:sans-serif;font-style:normal;font-weight:normal" x="1260" y="900">
    <tspan x="1260" y="900">Database</tspan>
  </text>
  <text font-size="33.8667" style="fill: #000000;text-anchor:start;font-family:sans-serif;font-style:normal;font-weight:normal" x="700" y="780">
    <tspan x="700" y="780">As in Guild Wars 1:</tspan>
  </text>
  <g>
    <polygon style="fill: #ffffff" points="660,1000 680,1020 660,1040 640,1020 "/>
    <polygon style="fill: none; fill-opacity:0; stroke-width: 2; stroke: #000000" points="660,1000 680,1020 660,1040 640,1020 "/>
    <polygon style="fill: none; fill-opacity:0; stroke-width: 2; stroke: #000000" points="660,1000 680,1020 660,1040 640,1020 "/>
  </g>
  <g>
    <rect style="fill: #ffffff" x="740" y="940" width="89.6" height="36"/>
    <rect style="fill: none; fill-opacity:0; stroke-width: 2; stroke: #000000" x="740" y="940" width="89.6" height="36"/>
    <text font-size="12.8" style="fill: #000000;text-anchor:middle;font-family:monospace;font-style:normal;font-weight:normal" x="784.8" y="961.2">Auth Srv</text>
  </g>
  <line style="fill: none; fill-opacity:0; stroke-width: 2; stroke: #000000" x1="740" y1="958" x2="670" y2="1010"/>
  <line style="fill: none; fill-opacity:0; stroke-width: 2; stroke: #000000" x1="780" y1="1098" x2="670" y2="1030"/>
  <g>
    <rect style="fill: #ffffff" x="800" y="1260" width="89.6" height="36"/>
    <rect style="fill: none; fill-opacity:0; stroke-width: 2; stroke: #000000" x="800" y="1260" width="89.6" height="36"/>
    <text font-size="12.8" style="fill: #000000;text-anchor:middle;font-family:monospace;font-style:normal;font-weight:normal" x="844.8" y="1281.2">File Srv</text>
  </g>
  <line style="fill: none; fill-opacity:0; stroke-width: 2; stroke: #000000" x1="440" y1="1020" x2="800" y2="1278"/>
</svg>
