<?xml version="1.0" encoding="UTF-8" standalone="no"?>
<!DOCTYPE svg PUBLIC "-//W3C//DTD SVG 1.0//EN" "http://www.w3.org/TR/2001/PR-SVG-20010719/DTD/svg10.dtd">
<svg width="46cm" height="48cm" viewBox="238 279 902 943" xmlns="http://www.w3.org/2000/svg" xmlns:xlink="http://www.w3.org/1999/xlink">
  <g>
    <rect style="fill: #ffffff" x="600" y="300" width="182" height="36"/>
    <rect style="fill: none; fill-opacity:0; stroke-width: 2; stroke: #000000" x="600" y="300" width="182" height="36"/>
    <text font-size="12.8" style="fill: #000000;text-anchor:middle;font-family:monospace;font-style:normal;font-weight:normal" x="691" y="321.2">Server with role XYZ</text>
  </g>
  <g>
    <rect style="fill: #ffffff" x="680" y="440" width="120.4" height="36"/>
    <rect style="fill: none; fill-opacity:0; stroke-width: 2; stroke: #000000" x="680" y="440" width="120.4" height="36"/>
    <text font-size="12.8" style="fill: #000000;text-anchor:middle;font-family:monospace;font-style:normal;font-weight:normal" x="740.2" y="461.2">Other Server</text>
  </g>
  <g>
    <rect style="fill: #d9d9cd" x="320" y="280" width="60" height="50"/>
    <rect style="fill: none; fill-opacity:0; stroke-width: 2; stroke: #000000" x="320" y="280" width="60" height="50"/>
    <rect style="fill: none; fill-opacity:0; stroke-width: 0.2; stroke: #000000" x="320" y="280" width="60" height="50"/>
    <rect style="fill: #a1a1a1" x="323.333" y="283.333" width="53.3333" height="40"/>
    <rect style="fill: none; fill-opacity:0; stroke-width: 2; stroke: #000000" x="323.333" y="283.333" width="53.3333" height="40"/>
    <rect style="fill: none; fill-opacity:0; stroke-width: 0.2; stroke: #000000" x="323.333" y="283.333" width="53.3333" height="40"/>
    <polygon style="fill: #d9d9cd" points="330,330 370,330 360,333.333 340,333.333 "/>
    <polygon style="fill: none; fill-opacity:0; stroke-width: 2; stroke: #000000" points="330,330 370,330 360,333.333 340,333.333 "/>
    <polygon style="fill: none; fill-opacity:0; stroke-width: 0.2; stroke: #000000" points="330,330 370,330 360,333.333 340,333.333 "/>
    <rect style="fill: #d9d9cd" x="340" y="333.333" width="20" height="3.33333"/>
    <rect style="fill: none; fill-opacity:0; stroke-width: 2; stroke: #000000" x="340" y="333.333" width="20" height="3.33333"/>
    <rect style="fill: none; fill-opacity:0; stroke-width: 0.2; stroke: #000000" x="340" y="333.333" width="20" height="3.33333"/>
    <rect style="fill: #d9d9cd" x="330" y="336.667" width="40" height="3.33333"/>
    <rect style="fill: none; fill-opacity:0; stroke-width: 2; stroke: #000000" x="330" y="336.667" width="40" height="3.33333"/>
    <rect style="fill: none; fill-opacity:0; stroke-width: 0.2; stroke: #000000" x="330" y="336.667" width="40" height="3.33333"/>
  </g>
  <text font-size="22.5778" style="fill: #000000;text-anchor:start;font-family:sans-serif;font-style:normal;font-weight:normal" x="320" y="380">
    <tspan x="320" y="380">Client</tspan>
  </text>
  <line style="fill: none; fill-opacity:0; stroke-width: 2; stroke: #000000" x1="380" y1="310" x2="600" y2="318"/>
  <line style="fill: none; fill-opacity:0; stroke-width: 2; stroke: #000000" x1="698.651" y1="336.973" x2="740.2" y2="440"/>
  <g>
    <rect style="fill: #ffffff" x="1040" y="287.941" width="54" height="47.6471"/>
    <ellipse style="fill: #ffffff" cx="1067" cy="335.588" rx="27" ry="7.94118"/>
    <ellipse style="fill: #ffffff" cx="1067" cy="287.941" rx="27" ry="7.94118"/>
    <ellipse style="fill: none; fill-opacity:0; stroke-width: 2; stroke: #000000" cx="1067" cy="287.941" rx="27" ry="7.94118"/>
    <path style="fill: none; fill-opacity:0; stroke-width: 2; stroke: #000000" d="M 1094 287.941 L 1094,335.588 C 1094,339.974 1081.91,343.529 1067,343.529 C 1052.09,343.529 1040,339.974 1040,335.588 L 1040,287.941"/>
    <text font-size="12.8" style="fill: #000000;text-anchor:middle;font-family:sans-serif;font-style:normal;font-weight:normal" x="1067" y="356.329">
      <tspan x="1067" y="356.329">DB</tspan>
    </text>
  </g>
  <line style="fill: none; fill-opacity:0; stroke-width: 2; stroke: #000000" x1="782" y1="318" x2="1039" y2="312.47"/>
  <g>
    <polygon style="fill: #ffffff" points="655,620 655,690 620,690 690,760 760,690 725,690 725,620 "/>
    <polygon style="fill: none; fill-opacity:0; stroke-width: 2; stroke: #000000" points="655,620 655,690 620,690 690,760 760,690 725,690 725,620 "/>
    <polygon style="fill: none; fill-opacity:0; stroke-width: 2; stroke: #000000" points="655,620 655,690 620,690 690,760 760,690 725,690 725,620 "/>
  </g>
  <g>
    <rect style="fill: #ffffff" x="480" y="840" width="420" height="180"/>
    <rect style="fill: none; fill-opacity:0; stroke-width: 2; stroke: #000000" x="480" y="840" width="420" height="180"/>
  </g>
  <text font-size="22.5778" style="fill: #000000;text-anchor:start;font-family:sans-serif;font-style:normal;font-weight:normal" x="580" y="880">
    <tspan x="580" y="880">Server with role XYZ</tspan>
  </text>
  <g>
    <rect style="fill: #ffffff" x="460" y="880" width="19.3548" height="20"/>
    <rect style="fill: none; fill-opacity:0; stroke-width: 2; stroke: #000000" x="460" y="880" width="19.3548" height="20"/>
    <rect style="fill: none; fill-opacity:0; stroke-width: 2; stroke: #000000" x="460" y="880" width="19.3548" height="20"/>
  </g>
  <g>
    <rect style="fill: #ffffff" x="680" y="1020" width="19.3548" height="20"/>
    <rect style="fill: none; fill-opacity:0; stroke-width: 2; stroke: #000000" x="680" y="1020" width="19.3548" height="20"/>
    <rect style="fill: none; fill-opacity:0; stroke-width: 2; stroke: #000000" x="680" y="1020" width="19.3548" height="20"/>
  </g>
  <g>
    <rect style="fill: #ffffff" x="900" y="920" width="19.3548" height="20"/>
    <rect style="fill: none; fill-opacity:0; stroke-width: 2; stroke: #000000" x="900" y="920" width="19.3548" height="20"/>
    <rect style="fill: none; fill-opacity:0; stroke-width: 2; stroke: #000000" x="900" y="920" width="19.3548" height="20"/>
  </g>
  <g>
    <rect style="fill: #ffffff" x="240" y="880" width="19.3548" height="20"/>
    <rect style="fill: none; fill-opacity:0; stroke-width: 2; stroke: #000000" x="240" y="880" width="19.3548" height="20"/>
    <rect style="fill: none; fill-opacity:0; stroke-width: 2; stroke: #000000" x="240" y="880" width="19.3548" height="20"/>
  </g>
  <g>
    <rect style="fill: #ffffff" x="1120" y="920" width="19.3548" height="20"/>
    <rect style="fill: none; fill-opacity:0; stroke-width: 2; stroke: #000000" x="1120" y="920" width="19.3548" height="20"/>
    <rect style="fill: none; fill-opacity:0; stroke-width: 2; stroke: #000000" x="1120" y="920" width="19.3548" height="20"/>
  </g>
  <g>
    <rect style="fill: #ffffff" x="680" y="1200" width="19.3548" height="20"/>
    <rect style="fill: none; fill-opacity:0; stroke-width: 2; stroke: #000000" x="680" y="1200" width="19.3548" height="20"/>
    <rect style="fill: none; fill-opacity:0; stroke-width: 2; stroke: #000000" x="680" y="1200" width="19.3548" height="20"/>
  </g>
  <line style="fill: none; fill-opacity:0; stroke-width: 2; stroke: #000000" x1="259.354" y1="890" x2="460" y2="890"/>
  <line style="fill: none; fill-opacity:0; stroke-width: 2; stroke: #000000" x1="689.678" y1="1040" x2="689.678" y2="1200"/>
  <line style="fill: none; fill-opacity:0; stroke-width: 2; stroke: #000000" x1="919.354" y1="930" x2="1120" y2="930"/>
  <text font-size="12.8" style="fill: #000000;text-anchor:start;font-family:sans-serif;font-style:normal;font-weight:normal" x="300" y="880">
    <tspan x="300" y="880">Custom Client Interface</tspan>
  </text>
  <text font-size="12.8" style="fill: #000000;text-anchor:start;font-family:sans-serif;font-style:normal;font-weight:normal" x="700" y="1120">
    <tspan x="700" y="1120">Server Standart Interface (or custom)</tspan>
  </text>
  <text font-size="12.8" style="fill: #000000;text-anchor:start;font-family:sans-serif;font-style:normal;font-weight:normal" x="960" y="920">
    <tspan x="960" y="920">DB Interface (MySQL w/e)</tspan>
  </text>
  <g>
    <rect style="fill: #ffffff" x="460" y="960" width="19.3548" height="20"/>
    <rect style="fill: none; fill-opacity:0; stroke-width: 2; stroke-dasharray: 4; stroke: #000000" x="460" y="960" width="19.3548" height="20"/>
    <rect style="fill: none; fill-opacity:0; stroke-width: 2; stroke-dasharray: 4; stroke: #000000" x="460" y="960" width="19.3548" height="20"/>
  </g>
  <g>
    <rect style="fill: #ffffff" x="520" y="1020" width="19.3548" height="20"/>
    <rect style="fill: none; fill-opacity:0; stroke-width: 2; stroke-dasharray: 4; stroke: #000000" x="520" y="1020" width="19.3548" height="20"/>
    <rect style="fill: none; fill-opacity:0; stroke-width: 2; stroke-dasharray: 4; stroke: #000000" x="520" y="1020" width="19.3548" height="20"/>
  </g>
  <g>
    <rect style="fill: #ffffff" x="240" y="960" width="19.3548" height="20"/>
    <rect style="fill: none; fill-opacity:0; stroke-width: 2; stroke-dasharray: 4; stroke: #000000" x="240" y="960" width="19.3548" height="20"/>
    <rect style="fill: none; fill-opacity:0; stroke-width: 2; stroke-dasharray: 4; stroke: #000000" x="240" y="960" width="19.3548" height="20"/>
  </g>
  <g>
    <rect style="fill: #ffffff" x="520" y="1200" width="19.3548" height="20"/>
    <rect style="fill: none; fill-opacity:0; stroke-width: 2; stroke-dasharray: 4; stroke: #000000" x="520" y="1200" width="19.3548" height="20"/>
    <rect style="fill: none; fill-opacity:0; stroke-width: 2; stroke-dasharray: 4; stroke: #000000" x="520" y="1200" width="19.3548" height="20"/>
  </g>
  <line style="fill: none; fill-opacity:0; stroke-width: 2; stroke-dasharray: 4; stroke: #000000" x1="529.678" y1="1040" x2="529.678" y2="1200"/>
  <line style="fill: none; fill-opacity:0; stroke-width: 2; stroke-dasharray: 4; stroke: #000000" x1="259.354" y1="970" x2="460" y2="970"/>
  <text font-size="12.8" style="fill: #000000;text-anchor:start;font-family:sans-serif;font-style:normal;font-weight:normal" x="300" y="960">
    <tspan x="300" y="960">Local/remote Terminal</tspan>
  </text>
  <text font-size="12.8" style="fill: #000000;text-anchor:start;font-family:sans-serif;font-style:normal;font-weight:normal" x="380" y="1120">
    <tspan x="380" y="1120">HTTP based monitoring</tspan>
  </text>
</svg>
