<?xml version="1.0" encoding="UTF-8" standalone="no"?>
<!DOCTYPE svg PUBLIC "-//W3C//DTD SVG 1.0//EN" "http://www.w3.org/TR/2001/PR-SVG-20010719/DTD/svg10.dtd">
<svg width="109cm" height="71cm" viewBox="352 29 2176 1407" xmlns="http://www.w3.org/2000/svg" xmlns:xlink="http://www.w3.org/1999/xlink">
  <rect style="fill: none; fill-opacity:0; stroke-width: 2; stroke-dasharray: 4; stroke: #000000" x="353.266" y="141.197" width="1559.99" height="1294.07"/>
  <rect style="fill: none; fill-opacity:0; stroke-width: 2; stroke-dasharray: 4; stroke: #000000" x="2003.98" y="59.3214" width="522.857" height="890"/>
  <g>
    <rect style="fill: #ffffff" x="425" y="243" width="113.25" height="28"/>
    <rect style="fill: none; fill-opacity:0; stroke-width: 2; stroke: #000000" x="425" y="243" width="113.25" height="28"/>
    <text font-size="16" style="fill: #000000;text-anchor:middle;font-family:sans-serif;font-style:normal;font-weight:700" x="481.625" y="263">RealityShard</text>
    <rect style="fill: #ffffff" x="425" y="271" width="113.25" height="8"/>
    <rect style="fill: none; fill-opacity:0; stroke-width: 2; stroke: #000000" x="425" y="271" width="113.25" height="8"/>
    <rect style="fill: #ffffff" x="425" y="279" width="113.25" height="8"/>
    <rect style="fill: none; fill-opacity:0; stroke-width: 2; stroke: #000000" x="425" y="279" width="113.25" height="8"/>
  </g>
  <g>
    <rect style="fill: #ffffff" x="779.714" y="389" width="164" height="28"/>
    <rect style="fill: none; fill-opacity:0; stroke-width: 2; stroke: #000000" x="779.714" y="389" width="164" height="28"/>
    <text font-size="16" style="fill: #000000;text-anchor:middle;font-family:sans-serif;font-style:normal;font-weight:700" x="861.714" y="409">ShardManager</text>
    <rect style="fill: #ffffff" x="779.714" y="417" width="164" height="20"/>
    <rect style="fill: none; fill-opacity:0; stroke-width: 2; stroke: #000000" x="779.714" y="417" width="164" height="20"/>
    <text font-size="12.8" style="fill: #000000;text-anchor:start;font-family:monospace;font-style:normal;font-weight:normal" x="782.714" y="430.2">-shardlet: IShardlet</text>
    <rect style="fill: #ffffff" x="779.714" y="437" width="164" height="20"/>
    <rect style="fill: none; fill-opacity:0; stroke-width: 2; stroke: #000000" x="779.714" y="437" width="164" height="20"/>
    <text font-size="12.8" style="fill: #000000;text-anchor:start;font-family:monospace;font-style:normal;font-weight:normal" x="782.714" y="450.2">+WorkerTask()</text>
  </g>
  <g>
    <rect style="fill: #ffffff" x="664" y="537" width="395" height="28"/>
    <rect style="fill: none; fill-opacity:0; stroke-width: 2; stroke: #000000" x="664" y="537" width="395" height="28"/>
    <text font-size="16" style="fill: #000000;text-anchor:middle;font-family:sans-serif;font-style:normal;font-weight:700" x="861.5" y="557">NetworkManager</text>
    <rect style="fill: #ffffff" x="664" y="565" width="395" height="52"/>
    <rect style="fill: none; fill-opacity:0; stroke-width: 2; stroke: #000000" x="664" y="565" width="395" height="52"/>
    <text font-size="12.8" style="fill: #000000;text-anchor:start;font-family:monospace;font-style:normal;font-weight:normal" x="667" y="578.2">-factory: FCFactory</text>
    <text font-size="12.8" style="fill: #000000;text-anchor:start;font-family:monospace;font-style:normal;font-weight:normal" x="667" y="594.2">-listeners: NetworkListener[]</text>
    <text font-size="12.8" style="fill: #000000;text-anchor:start;font-family:monospace;font-style:normal;font-weight:normal" x="667" y="610.2">-frontCtls: IFrontController[NetID]</text>
    <rect style="fill: #ffffff" x="664" y="617" width="395" height="36"/>
    <rect style="fill: none; fill-opacity:0; stroke-width: 2; stroke: #000000" x="664" y="617" width="395" height="36"/>
    <text font-size="12.8" style="fill: #000000;text-anchor:start;font-family:monospace;font-style:normal;font-weight:normal" x="667" y="630.2">+&lt;&lt;ctor&gt;&gt; New(prototypeDict:IFrontConrtoller[int])</text>
    <text font-size="12.8" style="fill: #000000;text-anchor:start;font-family:monospace;font-style:normal;font-weight:normal" x="667" y="646.2">+Update()</text>
  </g>
  <g>
    <polyline style="fill: none; fill-opacity:0; stroke-width: 2; stroke: #000000" points="861.714,457 861.714,497 861.5,497 861.5,532.528 "/>
    <polyline style="fill: none; fill-opacity:0; stroke-width: 2; stroke: #000000" points="856.5,524.764 861.5,534.764 866.5,524.764 "/>
  </g>
  <g>
    <rect style="fill: #ffffff" x="1484.33" y="170" width="356.5" height="44"/>
    <rect style="fill: none; fill-opacity:0; stroke-width: 2; stroke: #000000" x="1484.33" y="170" width="356.5" height="44"/>
    <text font-size="12.8" style="fill: #000000;text-anchor:middle;font-family:monospace;font-style:normal;font-weight:normal" x="1662.58" y="185.2">&lt;&lt;interface&gt;&gt;</text>
    <text font-size="16" style="fill: #000000;text-anchor:middle;font-family:sans-serif;font-style:normal;font-weight:700" x="1662.58" y="206">IShardlet</text>
    <rect style="fill: #ffffff" x="1484.33" y="214" width="356.5" height="8"/>
    <rect style="fill: none; fill-opacity:0; stroke-width: 2; stroke: #000000" x="1484.33" y="214" width="356.5" height="8"/>
    <rect style="fill: #ffffff" x="1484.33" y="222" width="356.5" height="52"/>
    <rect style="fill: none; fill-opacity:0; stroke-width: 2; stroke: #000000" x="1484.33" y="222" width="356.5" height="52"/>
    <text font-size="12.8" style="fill: #000000;text-anchor:start;font-family:monospace;font-style:normal;font-weight:normal" x="1487.33" y="235.2">+Update()</text>
    <text font-size="12.8" style="fill: #000000;text-anchor:start;font-family:monospace;font-style:normal;font-weight:normal" x="1487.33" y="251.2">+GetFrontControllers(): IFrontController[int]</text>
    <text font-size="12.8" style="fill: #000000;text-anchor:start;font-family:monospace;font-style:normal;font-weight:normal" x="1487.33" y="267.2">+GetControllers(): IController[]</text>
  </g>
  <g>
    <rect style="fill: #ffffff" x="1540.33" y="520" width="302.6" height="44"/>
    <rect style="fill: none; fill-opacity:0; stroke-width: 2; stroke: #000000" x="1540.33" y="520" width="302.6" height="44"/>
    <text font-size="12.8" style="fill: #000000;text-anchor:middle;font-family:monospace;font-style:normal;font-weight:normal" x="1691.63" y="535.2">&lt;&lt;interface&gt;&gt;</text>
    <text font-size="16" style="fill: #000000;text-anchor:middle;font-family:sans-serif;font-style:normal;font-weight:700" x="1691.63" y="556">IFrontController</text>
    <rect style="fill: #ffffff" x="1540.33" y="564" width="302.6" height="8"/>
    <rect style="fill: none; fill-opacity:0; stroke-width: 2; stroke: #000000" x="1540.33" y="564" width="302.6" height="8"/>
    <rect style="fill: #ffffff" x="1540.33" y="572" width="302.6" height="84"/>
    <rect style="fill: none; fill-opacity:0; stroke-width: 2; stroke: #000000" x="1540.33" y="572" width="302.6" height="84"/>
    <text font-size="12.8" style="fill: #000000;text-anchor:start;font-family:monospace;font-style:normal;font-weight:normal" x="1543.33" y="585.2">+Update()</text>
    <text font-size="12.8" style="fill: #000000;text-anchor:start;font-family:monospace;font-style:normal;font-weight:normal" x="1543.33" y="601.2">+Send(action:IAction)</text>
    <text font-size="12.8" style="fill: #000000;text-anchor:start;font-family:monospace;font-style:normal;font-weight:normal" x="1543.33" y="617.2">+SetSocketWrapper(sock:ISocketWrapper)</text>
    <text font-size="12.8" style="fill: #000000;text-anchor:start;font-family:monospace;font-style:normal;font-weight:normal" x="1543.33" y="633.2">+SetNetID()(netID:NetID)</text>
    <text font-size="12.8" style="fill: #000000;text-anchor:start;font-family:monospace;font-style:normal;font-weight:normal" x="1543.33" y="649.2">+SetPublisher()</text>
  </g>
  <g>
    <rect style="fill: #ffffff" x="1243.33" y="520" width="203.25" height="44"/>
    <rect style="fill: none; fill-opacity:0; stroke-width: 2; stroke: #000000" x="1243.33" y="520" width="203.25" height="44"/>
    <text font-size="12.8" style="fill: #000000;text-anchor:middle;font-family:monospace;font-style:normal;font-weight:normal" x="1344.96" y="535.2">&lt;&lt;interface&gt;&gt;</text>
    <text font-size="16" style="fill: #000000;text-anchor:middle;font-family:sans-serif;font-style:normal;font-weight:700" x="1344.96" y="556">IPrototype (ICloneable)</text>
    <rect style="fill: #ffffff" x="1243.33" y="564" width="203.25" height="8"/>
    <rect style="fill: none; fill-opacity:0; stroke-width: 2; stroke: #000000" x="1243.33" y="564" width="203.25" height="8"/>
    <rect style="fill: #ffffff" x="1243.33" y="572" width="203.25" height="20"/>
    <rect style="fill: none; fill-opacity:0; stroke-width: 2; stroke: #000000" x="1243.33" y="572" width="203.25" height="20"/>
    <text font-size="12.8" style="fill: #000000;text-anchor:start;font-family:monospace;font-style:normal;font-weight:normal" x="1246.33" y="585.2">+Clone(): IPrototype</text>
  </g>
  <g>
    <polyline style="fill: none; fill-opacity:0; stroke-width: 2; stroke: #000000" points="1464.82,542 1463.58,542 1539.33,542 1540.33,542 "/>
    <polygon style="fill: #ffffff" points="1464.82,534 1448.82,542 1464.82,550 "/>
    <polygon style="fill: none; fill-opacity:0; stroke-width: 2; stroke: #000000" points="1464.82,534 1448.82,542 1464.82,550 "/>
  </g>
  <g>
    <rect style="fill: #ffffff" x="726.544" y="765.608" width="395" height="28"/>
    <rect style="fill: none; fill-opacity:0; stroke-width: 2; stroke: #000000" x="726.544" y="765.608" width="395" height="28"/>
    <text font-size="16" style="fill: #000000;text-anchor:middle;font-family:sans-serif;font-style:normal;font-weight:700" x="924.044" y="785.608">FCFactory</text>
    <rect style="fill: #ffffff" x="726.544" y="793.608" width="395" height="8"/>
    <rect style="fill: none; fill-opacity:0; stroke-width: 2; stroke: #000000" x="726.544" y="793.608" width="395" height="8"/>
    <rect style="fill: #ffffff" x="726.544" y="801.608" width="395" height="36"/>
    <rect style="fill: none; fill-opacity:0; stroke-width: 2; stroke: #000000" x="726.544" y="801.608" width="395" height="36"/>
    <text font-size="12.8" style="fill: #000000;text-anchor:start;font-family:monospace;font-style:normal;font-weight:normal" x="729.544" y="814.808">+&lt;&lt;ctor&gt;&gt; New(prototypeDict:IFrontController[int])</text>
    <text font-size="12.8" style="fill: #000000;text-anchor:start;font-family:monospace;font-style:normal;font-weight:normal" x="729.544" y="830.808">+Produce(socket:ISocketWrapper): IFrontController</text>
  </g>
  <g>
    <rect style="fill: #ffffff" x="726.258" y="695.75" width="279.5" height="28"/>
    <rect style="fill: none; fill-opacity:0; stroke-width: 2; stroke: #000000" x="726.258" y="695.75" width="279.5" height="28"/>
    <text font-size="16" style="fill: #000000;text-anchor:middle;font-family:sans-serif;font-style:normal;font-weight:700" x="866.008" y="715.75">NetworkListener (?)</text>
    <rect style="fill: #ffffff" x="726.258" y="723.75" width="279.5" height="8"/>
    <rect style="fill: none; fill-opacity:0; stroke-width: 2; stroke: #000000" x="726.258" y="723.75" width="279.5" height="8"/>
    <rect style="fill: #ffffff" x="726.258" y="731.75" width="279.5" height="20"/>
    <rect style="fill: none; fill-opacity:0; stroke-width: 2; stroke: #000000" x="726.258" y="731.75" width="279.5" height="20"/>
    <text font-size="12.8" style="fill: #000000;text-anchor:start;font-family:monospace;font-style:normal;font-weight:normal" x="729.258" y="744.95">+CheckConnections(): ISocketWrapper</text>
  </g>
  <g>
    <polyline style="fill: none; fill-opacity:0; stroke-width: 2; stroke: #000000" points="943.714,403 1214.02,403 1214.02,192 1479.86,192 "/>
    <polyline style="fill: none; fill-opacity:0; stroke-width: 2; stroke: #000000" points="1472.1,197 1482.1,192 1472.1,187 "/>
  </g>
  <g>
    <rect style="fill: #ffffff" x="2153.12" y="177.75" width="149.9" height="28"/>
    <rect style="fill: none; fill-opacity:0; stroke-width: 2; stroke: #000000" x="2153.12" y="177.75" width="149.9" height="28"/>
    <text font-size="16" style="fill: #000000;text-anchor:middle;font-family:sans-serif;font-style:normal;font-weight:700" x="2228.07" y="197.75">ConcreteShardlet</text>
    <rect style="fill: #ffffff" x="2153.12" y="205.75" width="149.9" height="8"/>
    <rect style="fill: none; fill-opacity:0; stroke-width: 2; stroke: #000000" x="2153.12" y="205.75" width="149.9" height="8"/>
    <rect style="fill: #ffffff" x="2153.12" y="213.75" width="149.9" height="20"/>
    <rect style="fill: none; fill-opacity:0; stroke-width: 2; stroke: #000000" x="2153.12" y="213.75" width="149.9" height="20"/>
    <text font-size="12.8" style="fill: #000000;text-anchor:start;font-family:monospace;font-style:normal;font-weight:normal" x="2156.12" y="226.95">+...()</text>
  </g>
  <g>
    <polyline style="fill: none; fill-opacity:0; stroke-width: 2; stroke-dasharray: 8; stroke: #000000" points="1859.07,192 2004.98,192 2004.98,191.75 2153.12,191.75 "/>
    <polygon style="fill: #ffffff" points="1859.07,184 1843.07,192 1859.07,200 "/>
    <polygon style="fill: none; fill-opacity:0; stroke-width: 2; stroke: #000000" points="1859.07,184 1843.07,192 1859.07,200 "/>
  </g>
  <g>
    <polygon style="fill: #ffffff" points="909.024,30.75 1215.32,30.75 1227.32,42.75 1227.32,96.75 909.024,96.75 "/>
    <polygon style="fill: none; fill-opacity:0; stroke-width: 2; stroke: #ffa500" points="909.024,30.75 1215.32,30.75 1227.32,42.75 1227.32,96.75 909.024,96.75 "/>
    <polyline style="fill: none; fill-opacity:0; stroke-width: 1; stroke: #ffa500" points="1215.32,30.75 1215.32,42.75 1227.32,42.75 "/>
    <text font-size="12.8" style="fill: #000000;text-anchor:start;font-family:monospace;font-style:normal;font-weight:normal" x="916.024" y="54.4">
      <tspan x="916.024" y="54.4">IFrontController[int]</tspan>
      <tspan x="916.024" y="70.4">is an association of</tspan>
      <tspan x="916.024" y="86.4">Portnumber -&gt; FrontController prototype</tspan>
    </text>
  </g>
  <g>
    <path style="fill: none; fill-opacity:0; stroke-width: 2; stroke: #ffa500" d="M 1227.32 96.75 C 1312.65,96.75 1399.01,248 1479.86,248"/>
    <polyline style="fill: none; fill-opacity:0; stroke-width: 2; stroke: #ffa500" points="1472.1,253 1482.1,248 1472.1,243 "/>
  </g>
  <g>
    <rect style="fill: #ffffff" x="2120.12" y="527.75" width="216.4" height="28"/>
    <rect style="fill: none; fill-opacity:0; stroke-width: 2; stroke: #000000" x="2120.12" y="527.75" width="216.4" height="28"/>
    <text font-size="16" style="fill: #000000;text-anchor:middle;font-family:sans-serif;font-style:normal;font-weight:700" x="2228.32" y="547.75">ConcreteFrontControllerA</text>
    <rect style="fill: #ffffff" x="2120.12" y="555.75" width="216.4" height="8"/>
    <rect style="fill: none; fill-opacity:0; stroke-width: 2; stroke: #000000" x="2120.12" y="555.75" width="216.4" height="8"/>
    <rect style="fill: #ffffff" x="2120.12" y="563.75" width="216.4" height="20"/>
    <rect style="fill: none; fill-opacity:0; stroke-width: 2; stroke: #000000" x="2120.12" y="563.75" width="216.4" height="20"/>
    <text font-size="12.8" style="fill: #000000;text-anchor:start;font-family:monospace;font-style:normal;font-weight:normal" x="2123.12" y="576.95">+...()</text>
  </g>
  <g>
    <rect style="fill: #ffffff" x="2132.12" y="559.75" width="216.45" height="28"/>
    <rect style="fill: none; fill-opacity:0; stroke-width: 2; stroke: #000000" x="2132.12" y="559.75" width="216.45" height="28"/>
    <text font-size="16" style="fill: #000000;text-anchor:middle;font-family:sans-serif;font-style:normal;font-weight:700" x="2240.34" y="579.75">ConcreteFrontControllerB</text>
    <rect style="fill: #ffffff" x="2132.12" y="587.75" width="216.45" height="8"/>
    <rect style="fill: none; fill-opacity:0; stroke-width: 2; stroke: #000000" x="2132.12" y="587.75" width="216.45" height="8"/>
    <rect style="fill: #ffffff" x="2132.12" y="595.75" width="216.45" height="20"/>
    <rect style="fill: none; fill-opacity:0; stroke-width: 2; stroke: #000000" x="2132.12" y="595.75" width="216.45" height="20"/>
    <text font-size="12.8" style="fill: #000000;text-anchor:start;font-family:monospace;font-style:normal;font-weight:normal" x="2135.12" y="608.95">+...()</text>
  </g>
  <g>
    <polyline style="fill: none; fill-opacity:0; stroke-width: 2; stroke-dasharray: 8; stroke: #000000" points="1861.17,542 1989.53,542 1989.53,541.75 2120.12,541.75 "/>
    <polygon style="fill: #ffffff" points="1861.17,534 1845.17,542 1861.17,550 "/>
    <polygon style="fill: none; fill-opacity:0; stroke-width: 2; stroke: #000000" points="1861.17,534 1845.17,542 1861.17,550 "/>
  </g>
  <g>
    <polyline style="fill: none; fill-opacity:0; stroke-width: 2; stroke: #000000" points="2228.07,233.75 2228.07,380.75 2228.32,380.75 2228.32,523.278 "/>
    <polyline style="fill: none; fill-opacity:0; stroke-width: 2; stroke: #000000" points="2223.32,515.514 2228.32,525.514 2233.32,515.514 "/>
  </g>
  <text font-size="16.9333" style="fill: #000000;text-anchor:start;font-family:sans-serif;font-style:normal;font-weight:normal" x="2033.98" y="103.607">
    <tspan x="2033.98" y="103.607">External object library</tspan>
  </text>
  <g>
    <rect style="fill: #ffffff" x="729.502" y="982.464" width="418.1" height="28"/>
    <rect style="fill: none; fill-opacity:0; stroke-width: 2; stroke: #000000" x="729.502" y="982.464" width="418.1" height="28"/>
    <text font-size="16" style="fill: #000000;text-anchor:middle;font-family:sans-serif;font-style:normal;font-weight:700" x="938.552" y="1002.46">ActionPublisher</text>
    <rect style="fill: #ffffff" x="729.502" y="1010.46" width="418.1" height="20"/>
    <rect style="fill: none; fill-opacity:0; stroke-width: 2; stroke: #000000" x="729.502" y="1010.46" width="418.1" height="20"/>
    <text font-size="12.8" style="fill: #000000;text-anchor:start;font-family:monospace;font-style:normal;font-weight:normal" x="732.502" y="1023.66">-subs: IController[][string]</text>
    <rect style="fill: #ffffff" x="729.502" y="1030.46" width="418.1" height="36"/>
    <rect style="fill: none; fill-opacity:0; stroke-width: 2; stroke: #000000" x="729.502" y="1030.46" width="418.1" height="36"/>
    <text font-size="12.8" style="fill: #000000;text-anchor:start;font-family:monospace;font-style:normal;font-weight:normal" x="732.502" y="1043.66">+RegisterSubscriber(sub:IController,actions:string[])</text>
    <text font-size="12.8" style="fill: #000000;text-anchor:start;font-family:monospace;font-style:normal;font-weight:normal" x="732.502" y="1059.66">+Publish(action:IAction)</text>
  </g>
  <g>
    <rect style="fill: #ffffff" x="2127.98" y="792.608" width="173.35" height="28"/>
    <rect style="fill: none; fill-opacity:0; stroke-width: 2; stroke: #000000" x="2127.98" y="792.608" width="173.35" height="28"/>
    <text font-size="16" style="fill: #000000;text-anchor:middle;font-family:sans-serif;font-style:normal;font-weight:700" x="2214.65" y="812.608">ConcreteControllerA</text>
    <rect style="fill: #ffffff" x="2127.98" y="820.608" width="173.35" height="8"/>
    <rect style="fill: none; fill-opacity:0; stroke-width: 2; stroke: #000000" x="2127.98" y="820.608" width="173.35" height="8"/>
    <rect style="fill: #ffffff" x="2127.98" y="828.608" width="173.35" height="20"/>
    <rect style="fill: none; fill-opacity:0; stroke-width: 2; stroke: #000000" x="2127.98" y="828.608" width="173.35" height="20"/>
    <text font-size="12.8" style="fill: #000000;text-anchor:start;font-family:monospace;font-style:normal;font-weight:normal" x="2130.98" y="841.808">+...()</text>
  </g>
  <g>
    <rect style="fill: #ffffff" x="2139.98" y="824.608" width="173.4" height="28"/>
    <rect style="fill: none; fill-opacity:0; stroke-width: 2; stroke: #000000" x="2139.98" y="824.608" width="173.4" height="28"/>
    <text font-size="16" style="fill: #000000;text-anchor:middle;font-family:sans-serif;font-style:normal;font-weight:700" x="2226.68" y="844.608">ConcreteControllerB</text>
    <rect style="fill: #ffffff" x="2139.98" y="852.608" width="173.4" height="8"/>
    <rect style="fill: none; fill-opacity:0; stroke-width: 2; stroke: #000000" x="2139.98" y="852.608" width="173.4" height="8"/>
    <rect style="fill: #ffffff" x="2139.98" y="860.608" width="173.4" height="20"/>
    <rect style="fill: none; fill-opacity:0; stroke-width: 2; stroke: #000000" x="2139.98" y="860.608" width="173.4" height="20"/>
    <text font-size="12.8" style="fill: #000000;text-anchor:start;font-family:monospace;font-style:normal;font-weight:normal" x="2142.98" y="873.808">+...()</text>
  </g>
  <g>
    <rect style="fill: #ffffff" x="1576.36" y="784.036" width="264.1" height="44"/>
    <rect style="fill: none; fill-opacity:0; stroke-width: 2; stroke: #000000" x="1576.36" y="784.036" width="264.1" height="44"/>
    <text font-size="12.8" style="fill: #000000;text-anchor:middle;font-family:monospace;font-style:normal;font-weight:normal" x="1708.41" y="799.236">&lt;&lt;interface&gt;&gt;</text>
    <text font-size="16" style="fill: #000000;text-anchor:middle;font-family:sans-serif;font-style:normal;font-weight:700" x="1708.41" y="820.036">IController</text>
    <rect style="fill: #ffffff" x="1576.36" y="828.036" width="264.1" height="8"/>
    <rect style="fill: none; fill-opacity:0; stroke-width: 2; stroke: #000000" x="1576.36" y="828.036" width="264.1" height="8"/>
    <rect style="fill: #ffffff" x="1576.36" y="836.036" width="264.1" height="36"/>
    <rect style="fill: none; fill-opacity:0; stroke-width: 2; stroke: #000000" x="1576.36" y="836.036" width="264.1" height="36"/>
    <text font-size="12.8" style="fill: #000000;text-anchor:start;font-family:monospace;font-style:normal;font-weight:normal" x="1579.36" y="849.236">+Update(action:IAction)</text>
    <text font-size="12.8" style="fill: #000000;text-anchor:start;font-family:monospace;font-style:normal;font-weight:normal" x="1579.36" y="865.236">+GetActionIdentifiers(): string[]</text>
  </g>
  <g>
    <polyline style="fill: none; fill-opacity:0; stroke-width: 2; stroke: #000000" points="2228.06,233.75 2228.44,233.75 2228.44,457.892 2481.12,457.892 2481.12,719.322 2224.86,719.322 2224.86,788.136 "/>
    <polyline style="fill: none; fill-opacity:0; stroke-width: 2; stroke: #000000" points="2219.86,780.372 2224.86,790.372 2229.86,780.372 "/>
  </g>
  <g>
    <polyline style="fill: none; fill-opacity:0; stroke-width: 2; stroke: #000000" points="538.25,257 658.982,257 658.982,403 775.242,403 "/>
    <polyline style="fill: none; fill-opacity:0; stroke-width: 2; stroke: #000000" points="767.478,408 777.478,403 767.478,398 "/>
  </g>
  <g>
    <polyline style="fill: none; fill-opacity:0; stroke-width: 2; stroke-dasharray: 8; stroke: #000000" points="1858.7,806.036 1992.22,806.036 1992.22,806.608 2127.98,806.608 "/>
    <polygon style="fill: #ffffff" points="1858.7,798.036 1842.7,806.036 1858.7,814.036 "/>
    <polygon style="fill: none; fill-opacity:0; stroke-width: 2; stroke: #000000" points="1858.7,798.036 1842.7,806.036 1858.7,814.036 "/>
  </g>
  <g>
    <rect style="fill: #ffffff" x="1541.26" y="999.86" width="302.6" height="44"/>
    <rect style="fill: none; fill-opacity:0; stroke-width: 2; stroke: #000000" x="1541.26" y="999.86" width="302.6" height="44"/>
    <text font-size="12.8" style="fill: #000000;text-anchor:middle;font-family:monospace;font-style:normal;font-weight:normal" x="1692.56" y="1015.06">&lt;&lt;interface&gt;&gt;</text>
    <text font-size="16" style="fill: #000000;text-anchor:middle;font-family:sans-serif;font-style:normal;font-weight:700" x="1692.56" y="1035.86">IAction</text>
    <rect style="fill: #ffffff" x="1541.26" y="1043.86" width="302.6" height="8"/>
    <rect style="fill: none; fill-opacity:0; stroke-width: 2; stroke: #000000" x="1541.26" y="1043.86" width="302.6" height="8"/>
    <rect style="fill: #ffffff" x="1541.26" y="1051.86" width="302.6" height="52"/>
    <rect style="fill: none; fill-opacity:0; stroke-width: 2; stroke: #000000" x="1541.26" y="1051.86" width="302.6" height="52"/>
    <text font-size="12.8" style="fill: #000000;text-anchor:start;font-family:monospace;font-style:normal;font-weight:normal" x="1544.26" y="1065.06">+&lt;&lt;prop&gt;&gt; Sender(): NetID</text>
    <text font-size="12.8" style="fill: #000000;text-anchor:start;font-family:monospace;font-style:normal;font-weight:normal" x="1544.26" y="1081.06">+&lt;&lt;prop&gt;&gt; Identifier(): String</text>
    <text font-size="12.8" style="fill: #000000;text-anchor:start;font-family:monospace;font-style:normal;font-weight:normal" x="1544.26" y="1097.06">+&lt;&lt;prop&gt;&gt; Parameters(): object[string]</text>
  </g>
  <g>
    <rect style="fill: #ffffff" x="728.264" y="910.86" width="190.05" height="28"/>
    <rect style="fill: none; fill-opacity:0; stroke-width: 2; stroke: #000000" x="728.264" y="910.86" width="190.05" height="28"/>
    <text font-size="16" style="fill: #000000;text-anchor:middle;font-family:sans-serif;font-style:normal;font-weight:700" x="823.289" y="930.86">FrontControllerFacade</text>
    <rect style="fill: #ffffff" x="728.264" y="938.86" width="190.05" height="8"/>
    <rect style="fill: none; fill-opacity:0; stroke-width: 2; stroke: #000000" x="728.264" y="938.86" width="190.05" height="8"/>
    <rect style="fill: #ffffff" x="728.264" y="946.86" width="190.05" height="20"/>
    <rect style="fill: none; fill-opacity:0; stroke-width: 2; stroke: #000000" x="728.264" y="946.86" width="190.05" height="20"/>
    <text font-size="12.8" style="fill: #000000;text-anchor:start;font-family:monospace;font-style:normal;font-weight:normal" x="731.264" y="960.06">+Send(action:IAction)</text>
  </g>
  <text font-size="16.9333" style="fill: #000000;text-anchor:start;font-family:sans-serif;font-style:normal;font-weight:normal" x="391.266" y="183.88">
    <tspan x="391.266" y="183.88">RealityShard Server</tspan>
  </text>
  <g>
    <polyline style="fill: none; fill-opacity:0; stroke-width: 2; stroke: #000000" points="638.828,551 629,551 629,709.75 726.258,709.75 "/>
    <polygon style="fill: #000000" points="664,551 650,555.8 636,551 650,546.2 "/>
    <polygon style="fill: none; fill-opacity:0; stroke-width: 2; stroke: #000000" points="664,551 650,555.8 636,551 650,546.2 "/>
    <text font-size="12.7998" style="fill: #000000;text-anchor:start;font-family:monospace;font-style:normal;font-weight:normal" x="631" y="626.375"></text>
    <text font-size="12.7998" style="fill: #000000;text-anchor:end;font-family:monospace;font-style:normal;font-weight:normal" x="632" y="547"></text>
    <text font-size="12.7998" style="fill: #000000;text-anchor:end;font-family:monospace;font-style:normal;font-weight:normal" x="722.258" y="705.75"></text>
  </g>
  <g>
    <polyline style="fill: none; fill-opacity:0; stroke-width: 2; stroke: #000000" points="638.828,551 629,551 629,779.608 726.544,779.608 "/>
    <polygon style="fill: #000000" points="664,551 650,555.8 636,551 650,546.2 "/>
    <polygon style="fill: none; fill-opacity:0; stroke-width: 2; stroke: #000000" points="664,551 650,555.8 636,551 650,546.2 "/>
    <text font-size="12.7998" style="fill: #000000;text-anchor:start;font-family:monospace;font-style:normal;font-weight:normal" x="631" y="661.304"></text>
    <text font-size="12.7998" style="fill: #000000;text-anchor:end;font-family:monospace;font-style:normal;font-weight:normal" x="632" y="547"></text>
    <text font-size="12.7998" style="fill: #000000;text-anchor:end;font-family:monospace;font-style:normal;font-weight:normal" x="722.544" y="775.608"></text>
  </g>
  <g>
    <polyline style="fill: none; fill-opacity:0; stroke-width: 2; stroke: #000000" points="638.828,551 629,551 629,924.86 728.264,924.86 "/>
    <polygon style="fill: #000000" points="664,551 650,555.8 636,551 650,546.2 "/>
    <polygon style="fill: none; fill-opacity:0; stroke-width: 2; stroke: #000000" points="664,551 650,555.8 636,551 650,546.2 "/>
    <text font-size="12.7998" style="fill: #000000;text-anchor:start;font-family:monospace;font-style:normal;font-weight:normal" x="631" y="733.93"></text>
    <text font-size="12.7998" style="fill: #000000;text-anchor:end;font-family:monospace;font-style:normal;font-weight:normal" x="632" y="547"></text>
    <text font-size="12.7998" style="fill: #000000;text-anchor:end;font-family:monospace;font-style:normal;font-weight:normal" x="724.264" y="920.86"></text>
  </g>
  <g>
    <polyline style="fill: none; fill-opacity:0; stroke-width: 2; stroke: #000000" points="638.828,551 629,551 629,996.464 729.502,996.464 "/>
    <polygon style="fill: #000000" points="664,551 650,555.8 636,551 650,546.2 "/>
    <polygon style="fill: none; fill-opacity:0; stroke-width: 2; stroke: #000000" points="664,551 650,555.8 636,551 650,546.2 "/>
    <text font-size="12.7998" style="fill: #000000;text-anchor:start;font-family:monospace;font-style:normal;font-weight:normal" x="631" y="769.732"></text>
    <text font-size="12.7998" style="fill: #000000;text-anchor:end;font-family:monospace;font-style:normal;font-weight:normal" x="632" y="547"></text>
    <text font-size="12.7998" style="fill: #000000;text-anchor:end;font-family:monospace;font-style:normal;font-weight:normal" x="725.502" y="992.464"></text>
  </g>
  <g>
    <polyline style="fill: none; fill-opacity:0; stroke-width: 2; stroke: #000000" points="1147.6,996.464 1361.98,996.464 1361.98,806.036 1571.89,806.036 "/>
    <polyline style="fill: none; fill-opacity:0; stroke-width: 2; stroke: #000000" points="1564.12,811.036 1574.12,806.036 1564.12,801.036 "/>
  </g>
  <g>
    <polygon style="fill: #ffffff" points="721.314,160.8 1066.11,160.8 1078.11,172.8 1078.11,210.8 721.314,210.8 "/>
    <polygon style="fill: none; fill-opacity:0; stroke-width: 2; stroke: #ffa500" points="721.314,160.8 1066.11,160.8 1078.11,172.8 1078.11,210.8 721.314,210.8 "/>
    <polyline style="fill: none; fill-opacity:0; stroke-width: 1; stroke: #ffa500" points="1066.11,160.8 1066.11,172.8 1078.11,172.8 "/>
    <text font-size="12.8" style="fill: #000000;text-anchor:start;font-family:monospace;font-style:normal;font-weight:normal" x="728.314" y="184.45">
      <tspan x="728.314" y="184.45">Implements a server tick (Invokes the update</tspan>
      <tspan x="728.314" y="200.45">mehods on the shardlet and NetworkManager)</tspan>
    </text>
  </g>
  <g>
    <path style="fill: none; fill-opacity:0; stroke-width: 2; stroke: #ffa500" d="M 1078.11 210.8 C 1076.31,297.5 1034.81,380.5 948.167,388.585"/>
    <polyline style="fill: none; fill-opacity:0; stroke-width: 2; stroke: #ffa500" points="955.433,382.885 945.94,388.792 956.362,392.842 "/>
  </g>
  <g>
    <polygon style="fill: #ffffff" points="1111.81,677.35 1425.81,677.35 1437.81,689.35 1437.81,727.35 1111.81,727.35 "/>
    <polygon style="fill: none; fill-opacity:0; stroke-width: 2; stroke: #ffa500" points="1111.81,677.35 1425.81,677.35 1437.81,689.35 1437.81,727.35 1111.81,727.35 "/>
    <polyline style="fill: none; fill-opacity:0; stroke-width: 1; stroke: #ffa500" points="1425.81,677.35 1425.81,689.35 1437.81,689.35 "/>
    <text font-size="12.8" style="fill: #000000;text-anchor:start;font-family:monospace;font-style:normal;font-weight:normal" x="1118.81" y="701">
      <tspan x="1118.81" y="701">NetworkListeners accepts clients on</tspan>
      <tspan x="1118.81" y="717">the ports given by GetFrontControllers()</tspan>
    </text>
  </g>
  <g>
    <path style="fill: none; fill-opacity:0; stroke-width: 2; stroke: #ffa500" d="M 1111.81 727.35 C 1055.81,727.75 1081.81,713.75 1010.22,709.985"/>
    <polyline style="fill: none; fill-opacity:0; stroke-width: 2; stroke: #ffa500" points="1018.24,705.4 1007.99,709.867 1017.71,715.386 "/>
  </g>
  <g>
    <rect style="fill: #ffffff" x="521.766" y="1164.82" width="241" height="44"/>
    <rect style="fill: none; fill-opacity:0; stroke-width: 2; stroke: #000000" x="521.766" y="1164.82" width="241" height="44"/>
    <text font-size="12.8" style="fill: #000000;text-anchor:middle;font-family:monospace;font-style:normal;font-weight:normal" x="642.266" y="1180.02">&lt;&lt;interface&gt;&gt;</text>
    <text font-size="16" style="fill: #000000;text-anchor:middle;font-family:sans-serif;font-style:normal;font-weight:700" x="642.266" y="1200.82">ISocketWrapper</text>
    <rect style="fill: #ffffff" x="521.766" y="1208.82" width="241" height="8"/>
    <rect style="fill: none; fill-opacity:0; stroke-width: 2; stroke: #000000" x="521.766" y="1208.82" width="241" height="8"/>
    <rect style="fill: #ffffff" x="521.766" y="1216.82" width="241" height="68"/>
    <rect style="fill: none; fill-opacity:0; stroke-width: 2; stroke: #000000" x="521.766" y="1216.82" width="241" height="68"/>
    <text font-size="12.8" style="fill: #000000;text-anchor:start;font-family:monospace;font-style:normal;font-weight:normal" x="524.766" y="1230.02">+Connect(remoteAddress:string)</text>
    <text font-size="12.8" style="fill: #000000;text-anchor:start;font-family:monospace;font-style:normal;font-weight:normal" x="524.766" y="1246.02">+Send(data:ubyte[])</text>
    <text font-size="12.8" style="fill: #000000;text-anchor:start;font-family:monospace;font-style:normal;font-weight:normal" x="524.766" y="1262.02">+Receive(): ubyte[]</text>
    <text font-size="12.8" style="fill: #000000;text-anchor:start;font-family:monospace;font-style:normal;font-weight:normal" x="524.766" y="1278.02">+Disconnect()</text>
  </g>
</svg>
