<?xml version="1.0" encoding="UTF-8" standalone="no"?>
<!DOCTYPE svg PUBLIC "-//W3C//DTD SVG 1.0//EN" "http://www.w3.org/TR/2001/PR-SVG-20010719/DTD/svg10.dtd">
<svg width="140cm" height="69cm" viewBox="352 58 2782 1378" xmlns="http://www.w3.org/2000/svg" xmlns:xlink="http://www.w3.org/1999/xlink">
  <rect style="fill: none; fill-opacity:0; stroke-width: 2; stroke-dasharray: 4; stroke: #000000" x="2609.8" y="287.316" width="522.857" height="661.454"/>
  <rect style="fill: none; fill-opacity:0; stroke-width: 2; stroke-dasharray: 4; stroke: #000000" x="353.266" y="141.197" width="1559.99" height="1294.07"/>
  <rect style="fill: none; fill-opacity:0; stroke-width: 2; stroke-dasharray: 4; stroke: #000000" x="2003.98" y="59.3214" width="522.857" height="890"/>
  <g>
    <rect style="fill: #ffffff" x="425" y="243" width="113.25" height="28"/>
    <rect style="fill: none; fill-opacity:0; stroke-width: 2; stroke: #000000" x="425" y="243" width="113.25" height="28"/>
    <text font-size="16" style="fill: #000000;text-anchor:middle;font-family:sans-serif;font-style:normal;font-weight:700" x="481.625" y="263">RealityShard</text>
    <rect style="fill: #ffffff" x="425" y="271" width="113.25" height="8"/>
    <rect style="fill: none; fill-opacity:0; stroke-width: 2; stroke: #000000" x="425" y="271" width="113.25" height="8"/>
    <rect style="fill: #ffffff" x="425" y="279" width="113.25" height="8"/>
    <rect style="fill: none; fill-opacity:0; stroke-width: 2; stroke: #000000" x="425" y="279" width="113.25" height="8"/>
  </g>
  <g>
    <rect style="fill: #ffffff" x="768.4" y="389" width="187.1" height="28"/>
    <rect style="fill: none; fill-opacity:0; stroke-width: 2; stroke: #000000" x="768.4" y="389" width="187.1" height="28"/>
    <text font-size="16" style="fill: #000000;text-anchor:middle;font-family:sans-serif;font-style:normal;font-weight:700" x="861.95" y="409">ShardletManager</text>
    <rect style="fill: #ffffff" x="768.4" y="417" width="187.1" height="20"/>
    <rect style="fill: none; fill-opacity:0; stroke-width: 2; stroke: #000000" x="768.4" y="417" width="187.1" height="20"/>
    <text font-size="12.8" style="fill: #000000;text-anchor:start;font-family:monospace;font-style:normal;font-weight:normal" x="771.4" y="430.2">-shardlets: IShardlet[]</text>
    <rect style="fill: #ffffff" x="768.4" y="437" width="187.1" height="20"/>
    <rect style="fill: none; fill-opacity:0; stroke-width: 2; stroke: #000000" x="768.4" y="437" width="187.1" height="20"/>
    <text font-size="12.8" style="fill: #000000;text-anchor:start;font-family:monospace;font-style:normal;font-weight:normal" x="771.4" y="450.2">+WorkerTask()</text>
  </g>
  <g>
    <rect style="fill: #ffffff" x="664" y="634.58" width="395" height="28"/>
    <rect style="fill: none; fill-opacity:0; stroke-width: 2; stroke: #000000" x="664" y="634.58" width="395" height="28"/>
    <text font-size="16" style="fill: #000000;text-anchor:middle;font-family:sans-serif;font-style:normal;font-weight:700" x="861.5" y="654.58">NetworkManager</text>
    <rect style="fill: #ffffff" x="664" y="662.58" width="395" height="8"/>
    <rect style="fill: none; fill-opacity:0; stroke-width: 2; stroke: #000000" x="664" y="662.58" width="395" height="8"/>
    <rect style="fill: #ffffff" x="664" y="670.58" width="395" height="36"/>
    <rect style="fill: none; fill-opacity:0; stroke-width: 2; stroke: #000000" x="664" y="670.58" width="395" height="36"/>
    <text font-size="12.8" style="fill: #000000;text-anchor:start;font-family:monospace;font-style:normal;font-weight:normal" x="667" y="683.78">+&lt;&lt;ctor&gt;&gt; New(prototypeDict:IFrontConrtoller[int])</text>
    <text font-size="12.8" style="fill: #000000;text-anchor:start;font-family:monospace;font-style:normal;font-weight:normal" x="667" y="699.78">+Update() / WorkerTask()</text>
  </g>
  <g>
    <polyline style="fill: none; fill-opacity:0; stroke-width: 2; stroke: #000000" points="861.95,457 861.95,545.79 861.5,545.79 861.5,630.108 "/>
    <polyline style="fill: none; fill-opacity:0; stroke-width: 2; stroke: #000000" points="856.5,622.344 861.5,632.344 866.5,622.344 "/>
  </g>
  <g>
    <rect style="fill: #ffffff" x="1484.33" y="170" width="356.5" height="44"/>
    <rect style="fill: none; fill-opacity:0; stroke-width: 2; stroke: #000000" x="1484.33" y="170" width="356.5" height="44"/>
    <text font-size="12.8" style="fill: #000000;text-anchor:middle;font-family:monospace;font-style:normal;font-weight:normal" x="1662.58" y="185.2">&lt;&lt;interface&gt;&gt;</text>
    <text font-size="16" style="fill: #000000;text-anchor:middle;font-family:sans-serif;font-style:normal;font-weight:700" x="1662.58" y="206">IShardlet</text>
    <rect style="fill: #ffffff" x="1484.33" y="214" width="356.5" height="8"/>
    <rect style="fill: none; fill-opacity:0; stroke-width: 2; stroke: #000000" x="1484.33" y="214" width="356.5" height="8"/>
    <rect style="fill: #ffffff" x="1484.33" y="222" width="356.5" height="52"/>
    <rect style="fill: none; fill-opacity:0; stroke-width: 2; stroke: #000000" x="1484.33" y="222" width="356.5" height="52"/>
    <text font-size="12.8" style="fill: #000000;text-anchor:start;font-family:monospace;font-style:normal;font-weight:normal" x="1487.33" y="235.2">+Init(context:IShardletContext)</text>
    <text font-size="12.8" style="fill: #000000;text-anchor:start;font-family:monospace;font-style:normal;font-weight:normal" x="1487.33" y="251.2">+Update()</text>
    <text font-size="12.8" style="fill: #000000;text-anchor:start;font-family:monospace;font-style:normal;font-weight:normal" x="1487.33" y="267.2">+GetFrontControllers(): IFrontController[int]</text>
  </g>
  <g>
    <rect style="fill: #ffffff" x="2697.16" y="520" width="141.3" height="44"/>
    <rect style="fill: none; fill-opacity:0; stroke-width: 2; stroke: #000000" x="2697.16" y="520" width="141.3" height="44"/>
    <text font-size="12.8" style="fill: #000000;text-anchor:middle;font-family:monospace;font-style:normal;font-weight:normal" x="2767.81" y="535.2">&lt;&lt;interface&gt;&gt;</text>
    <text font-size="16" style="fill: #000000;text-anchor:middle;font-family:sans-serif;font-style:normal;font-weight:700" x="2767.81" y="556">IFrontController</text>
    <rect style="fill: #ffffff" x="2697.16" y="564" width="141.3" height="8"/>
    <rect style="fill: none; fill-opacity:0; stroke-width: 2; stroke: #000000" x="2697.16" y="564" width="141.3" height="8"/>
    <rect style="fill: #ffffff" x="2697.16" y="572" width="141.3" height="8"/>
    <rect style="fill: none; fill-opacity:0; stroke-width: 2; stroke: #000000" x="2697.16" y="572" width="141.3" height="8"/>
  </g>
  <g>
    <rect style="fill: #ffffff" x="726.258" y="793.33" width="279.5" height="28"/>
    <rect style="fill: none; fill-opacity:0; stroke-width: 2; stroke: #000000" x="726.258" y="793.33" width="279.5" height="28"/>
    <text font-size="16" style="fill: #000000;text-anchor:middle;font-family:sans-serif;font-style:normal;font-weight:700" x="866.008" y="813.33">NetworkListener (?)</text>
    <rect style="fill: #ffffff" x="726.258" y="821.33" width="279.5" height="8"/>
    <rect style="fill: none; fill-opacity:0; stroke-width: 2; stroke: #000000" x="726.258" y="821.33" width="279.5" height="8"/>
    <rect style="fill: #ffffff" x="726.258" y="829.33" width="279.5" height="20"/>
    <rect style="fill: none; fill-opacity:0; stroke-width: 2; stroke: #000000" x="726.258" y="829.33" width="279.5" height="20"/>
    <text font-size="12.8" style="fill: #000000;text-anchor:start;font-family:monospace;font-style:normal;font-weight:normal" x="729.258" y="842.53">+CheckConnections(): ISocketWrapper</text>
  </g>
  <g>
    <polyline style="fill: none; fill-opacity:0; stroke-width: 2; stroke: #000000" points="955.5,403 1219.92,403 1219.92,192 1479.86,192 "/>
    <polyline style="fill: none; fill-opacity:0; stroke-width: 2; stroke: #000000" points="1472.1,197 1482.1,192 1472.1,187 "/>
  </g>
  <g>
    <rect style="fill: #ffffff" x="2153.12" y="177.75" width="149.9" height="28"/>
    <rect style="fill: none; fill-opacity:0; stroke-width: 2; stroke: #000000" x="2153.12" y="177.75" width="149.9" height="28"/>
    <text font-size="16" style="fill: #000000;text-anchor:middle;font-family:sans-serif;font-style:normal;font-weight:700" x="2228.07" y="197.75">ConcreteShardlet</text>
    <rect style="fill: #ffffff" x="2153.12" y="205.75" width="149.9" height="8"/>
    <rect style="fill: none; fill-opacity:0; stroke-width: 2; stroke: #000000" x="2153.12" y="205.75" width="149.9" height="8"/>
    <rect style="fill: #ffffff" x="2153.12" y="213.75" width="149.9" height="20"/>
    <rect style="fill: none; fill-opacity:0; stroke-width: 2; stroke: #000000" x="2153.12" y="213.75" width="149.9" height="20"/>
    <text font-size="12.8" style="fill: #000000;text-anchor:start;font-family:monospace;font-style:normal;font-weight:normal" x="2156.12" y="226.95">+...()</text>
  </g>
  <g>
    <polyline style="fill: none; fill-opacity:0; stroke-width: 2; stroke-dasharray: 8; stroke: #000000" points="1859.07,192 2004.98,192 2004.98,191.75 2153.12,191.75 "/>
    <polygon style="fill: #ffffff" points="1859.07,184 1843.07,192 1859.07,200 "/>
    <polygon style="fill: none; fill-opacity:0; stroke-width: 2; stroke: #000000" points="1859.07,184 1843.07,192 1859.07,200 "/>
  </g>
  <g>
    <polygon style="fill: #ffffff" points="1500.17,377.232 1729.47,377.232 1741.47,389.232 1741.47,443.232 1500.17,443.232 "/>
    <polygon style="fill: none; fill-opacity:0; stroke-width: 2; stroke: #ffa500" points="1500.17,377.232 1729.47,377.232 1741.47,389.232 1741.47,443.232 1500.17,443.232 "/>
    <polyline style="fill: none; fill-opacity:0; stroke-width: 1; stroke: #ffa500" points="1729.47,377.232 1729.47,389.232 1741.47,389.232 "/>
    <text font-size="12.8" style="fill: #000000;text-anchor:start;font-family:monospace;font-style:normal;font-weight:normal" x="1507.17" y="400.882">
      <tspan x="1507.17" y="400.882">IFrontController[int]</tspan>
      <tspan x="1507.17" y="416.882">is an association of</tspan>
      <tspan x="1507.17" y="432.882">Portnumber -&gt; FrontController</tspan>
    </text>
  </g>
  <g>
    <path style="fill: none; fill-opacity:0; stroke-width: 2; stroke: #ffa500" d="M 1500.17 377.232 C 1424.24,346.712 1427.07,277.416 1479.98,265.02"/>
    <polyline style="fill: none; fill-opacity:0; stroke-width: 2; stroke: #ffa500" points="1473.56,271.659 1482.15,264.51 1471.28,261.923 "/>
  </g>
  <g>
    <rect style="fill: #ffffff" x="2120.12" y="527.75" width="216.4" height="28"/>
    <rect style="fill: none; fill-opacity:0; stroke-width: 2; stroke: #000000" x="2120.12" y="527.75" width="216.4" height="28"/>
    <text font-size="16" style="fill: #000000;text-anchor:middle;font-family:sans-serif;font-style:normal;font-weight:700" x="2228.32" y="547.75">ConcreteFrontControllerA</text>
    <rect style="fill: #ffffff" x="2120.12" y="555.75" width="216.4" height="8"/>
    <rect style="fill: none; fill-opacity:0; stroke-width: 2; stroke: #000000" x="2120.12" y="555.75" width="216.4" height="8"/>
    <rect style="fill: #ffffff" x="2120.12" y="563.75" width="216.4" height="20"/>
    <rect style="fill: none; fill-opacity:0; stroke-width: 2; stroke: #000000" x="2120.12" y="563.75" width="216.4" height="20"/>
    <text font-size="12.8" style="fill: #000000;text-anchor:start;font-family:monospace;font-style:normal;font-weight:normal" x="2123.12" y="576.95">+...()</text>
  </g>
  <g>
    <rect style="fill: #ffffff" x="2132.12" y="559.75" width="216.45" height="28"/>
    <rect style="fill: none; fill-opacity:0; stroke-width: 2; stroke: #000000" x="2132.12" y="559.75" width="216.45" height="28"/>
    <text font-size="16" style="fill: #000000;text-anchor:middle;font-family:sans-serif;font-style:normal;font-weight:700" x="2240.34" y="579.75">ConcreteFrontControllerB</text>
    <rect style="fill: #ffffff" x="2132.12" y="587.75" width="216.45" height="8"/>
    <rect style="fill: none; fill-opacity:0; stroke-width: 2; stroke: #000000" x="2132.12" y="587.75" width="216.45" height="8"/>
    <rect style="fill: #ffffff" x="2132.12" y="595.75" width="216.45" height="20"/>
    <rect style="fill: none; fill-opacity:0; stroke-width: 2; stroke: #000000" x="2132.12" y="595.75" width="216.45" height="20"/>
    <text font-size="12.8" style="fill: #000000;text-anchor:start;font-family:monospace;font-style:normal;font-weight:normal" x="2135.12" y="608.95">+...()</text>
  </g>
  <g>
    <polyline style="fill: none; fill-opacity:0; stroke-width: 2; stroke-dasharray: 8; stroke: #000000" points="2678.92,542 2508.84,542 2508.84,541.75 2336.52,541.75 "/>
    <polygon style="fill: #ffffff" points="2678.92,550 2694.92,542 2678.92,534 "/>
    <polygon style="fill: none; fill-opacity:0; stroke-width: 2; stroke: #000000" points="2678.92,550 2694.92,542 2678.92,534 "/>
  </g>
  <g>
    <polyline style="fill: none; fill-opacity:0; stroke-width: 2; stroke: #000000" points="2228.07,233.75 2228.07,380.75 2228.32,380.75 2228.32,523.278 "/>
    <polyline style="fill: none; fill-opacity:0; stroke-width: 2; stroke: #000000" points="2223.32,515.514 2228.32,525.514 2233.32,515.514 "/>
  </g>
  <text font-size="16.9333" style="fill: #000000;text-anchor:start;font-family:sans-serif;font-style:normal;font-weight:normal" x="2033.98" y="103.607">
    <tspan x="2033.98" y="103.607">External object library</tspan>
  </text>
  <g>
    <rect style="fill: #ffffff" x="726.674" y="906.096" width="225.6" height="28"/>
    <rect style="fill: none; fill-opacity:0; stroke-width: 2; stroke: #000000" x="726.674" y="906.096" width="225.6" height="28"/>
    <text font-size="16" style="fill: #000000;text-anchor:middle;font-family:sans-serif;font-style:normal;font-weight:700" x="839.474" y="926.096">ActionPublisher</text>
    <rect style="fill: #ffffff" x="726.674" y="934.096" width="225.6" height="20"/>
    <rect style="fill: none; fill-opacity:0; stroke-width: 2; stroke: #000000" x="726.674" y="934.096" width="225.6" height="20"/>
    <text font-size="12.8" style="fill: #000000;text-anchor:start;font-family:monospace;font-style:normal;font-weight:normal" x="729.674" y="947.296">-subs: IController[][string]</text>
    <rect style="fill: #ffffff" x="726.674" y="954.096" width="225.6" height="36"/>
    <rect style="fill: none; fill-opacity:0; stroke-width: 2; stroke: #000000" x="726.674" y="954.096" width="225.6" height="36"/>
    <text font-size="12.8" style="fill: #000000;text-anchor:start;font-family:monospace;font-style:normal;font-weight:normal" x="729.674" y="967.296">+RegisterSubscriber(...)</text>
    <text font-size="12.8" style="fill: #000000;text-anchor:start;font-family:monospace;font-style:normal;font-weight:normal" x="729.674" y="983.296">+Publish(placeholder)</text>
  </g>
  <g>
    <rect style="fill: #ffffff" x="2127.98" y="792.608" width="173.35" height="28"/>
    <rect style="fill: none; fill-opacity:0; stroke-width: 2; stroke: #000000" x="2127.98" y="792.608" width="173.35" height="28"/>
    <text font-size="16" style="fill: #000000;text-anchor:middle;font-family:sans-serif;font-style:normal;font-weight:700" x="2214.65" y="812.608">ConcreteControllerA</text>
    <rect style="fill: #ffffff" x="2127.98" y="820.608" width="173.35" height="8"/>
    <rect style="fill: none; fill-opacity:0; stroke-width: 2; stroke: #000000" x="2127.98" y="820.608" width="173.35" height="8"/>
    <rect style="fill: #ffffff" x="2127.98" y="828.608" width="173.35" height="20"/>
    <rect style="fill: none; fill-opacity:0; stroke-width: 2; stroke: #000000" x="2127.98" y="828.608" width="173.35" height="20"/>
    <text font-size="12.8" style="fill: #000000;text-anchor:start;font-family:monospace;font-style:normal;font-weight:normal" x="2130.98" y="841.808">+...()</text>
  </g>
  <g>
    <rect style="fill: #ffffff" x="2139.98" y="824.608" width="173.4" height="28"/>
    <rect style="fill: none; fill-opacity:0; stroke-width: 2; stroke: #000000" x="2139.98" y="824.608" width="173.4" height="28"/>
    <text font-size="16" style="fill: #000000;text-anchor:middle;font-family:sans-serif;font-style:normal;font-weight:700" x="2226.68" y="844.608">ConcreteControllerB</text>
    <rect style="fill: #ffffff" x="2139.98" y="852.608" width="173.4" height="8"/>
    <rect style="fill: none; fill-opacity:0; stroke-width: 2; stroke: #000000" x="2139.98" y="852.608" width="173.4" height="8"/>
    <rect style="fill: #ffffff" x="2139.98" y="860.608" width="173.4" height="20"/>
    <rect style="fill: none; fill-opacity:0; stroke-width: 2; stroke: #000000" x="2139.98" y="860.608" width="173.4" height="20"/>
    <text font-size="12.8" style="fill: #000000;text-anchor:start;font-family:monospace;font-style:normal;font-weight:normal" x="2142.98" y="873.808">+...()</text>
  </g>
  <g>
    <rect style="fill: #ffffff" x="2700.16" y="784.496" width="110.1" height="44"/>
    <rect style="fill: none; fill-opacity:0; stroke-width: 2; stroke: #000000" x="2700.16" y="784.496" width="110.1" height="44"/>
    <text font-size="12.8" style="fill: #000000;text-anchor:middle;font-family:monospace;font-style:normal;font-weight:normal" x="2755.21" y="799.696">&lt;&lt;interface&gt;&gt;</text>
    <text font-size="16" style="fill: #000000;text-anchor:middle;font-family:sans-serif;font-style:normal;font-weight:700" x="2755.21" y="820.496">IController</text>
    <rect style="fill: #ffffff" x="2700.16" y="828.496" width="110.1" height="8"/>
    <rect style="fill: none; fill-opacity:0; stroke-width: 2; stroke: #000000" x="2700.16" y="828.496" width="110.1" height="8"/>
    <rect style="fill: #ffffff" x="2700.16" y="836.496" width="110.1" height="8"/>
    <rect style="fill: none; fill-opacity:0; stroke-width: 2; stroke: #000000" x="2700.16" y="836.496" width="110.1" height="8"/>
  </g>
  <g>
    <polyline style="fill: none; fill-opacity:0; stroke-width: 2; stroke: #000000" points="2228.06,233.75 2228.44,233.75 2228.44,457.892 2481.12,457.892 2481.12,719.322 2224.86,719.322 2224.86,788.136 "/>
    <polyline style="fill: none; fill-opacity:0; stroke-width: 2; stroke: #000000" points="2219.86,780.372 2224.86,790.372 2229.86,780.372 "/>
  </g>
  <g>
    <polyline style="fill: none; fill-opacity:0; stroke-width: 2; stroke: #000000" points="538.25,257 653.325,257 653.325,403 763.928,403 "/>
    <polyline style="fill: none; fill-opacity:0; stroke-width: 2; stroke: #000000" points="756.164,408 766.164,403 756.164,398 "/>
  </g>
  <g>
    <polyline style="fill: none; fill-opacity:0; stroke-width: 2; stroke-dasharray: 8; stroke: #000000" points="2681.92,806.496 2492.75,806.496 2492.75,806.608 2301.33,806.608 "/>
    <polygon style="fill: #ffffff" points="2681.92,814.496 2697.92,806.496 2681.92,798.496 "/>
    <polygon style="fill: none; fill-opacity:0; stroke-width: 2; stroke: #000000" points="2681.92,814.496 2697.92,806.496 2681.92,798.496 "/>
  </g>
  <g>
    <rect style="fill: #ffffff" x="2926.1" y="643.088" width="110.1" height="44"/>
    <rect style="fill: none; fill-opacity:0; stroke-width: 2; stroke: #000000" x="2926.1" y="643.088" width="110.1" height="44"/>
    <text font-size="12.8" style="fill: #000000;text-anchor:middle;font-family:monospace;font-style:normal;font-weight:normal" x="2981.15" y="658.288">&lt;&lt;interface&gt;&gt;</text>
    <text font-size="16" style="fill: #000000;text-anchor:middle;font-family:sans-serif;font-style:normal;font-weight:700" x="2981.15" y="679.088">IView</text>
    <rect style="fill: #ffffff" x="2926.1" y="687.088" width="110.1" height="8"/>
    <rect style="fill: none; fill-opacity:0; stroke-width: 2; stroke: #000000" x="2926.1" y="687.088" width="110.1" height="8"/>
    <rect style="fill: #ffffff" x="2926.1" y="695.088" width="110.1" height="8"/>
    <rect style="fill: none; fill-opacity:0; stroke-width: 2; stroke: #000000" x="2926.1" y="695.088" width="110.1" height="8"/>
  </g>
  <text font-size="16.9333" style="fill: #000000;text-anchor:start;font-family:sans-serif;font-style:normal;font-weight:normal" x="391.266" y="183.88">
    <tspan x="391.266" y="183.88">RealityShard Server</tspan>
  </text>
  <g>
    <polyline style="fill: none; fill-opacity:0; stroke-width: 2; stroke: #000000" points="638.828,648.58 629,648.58 629,807.33 726.258,807.33 "/>
    <polygon style="fill: #000000" points="664,648.58 650,653.38 636,648.58 650,643.78 "/>
    <polygon style="fill: none; fill-opacity:0; stroke-width: 2; stroke: #000000" points="664,648.58 650,653.38 636,648.58 650,643.78 "/>
    <text font-size="12.7998" style="fill: #000000;text-anchor:start;font-family:monospace;font-style:normal;font-weight:normal" x="631" y="723.955"></text>
    <text font-size="12.7998" style="fill: #000000;text-anchor:end;font-family:monospace;font-style:normal;font-weight:normal" x="632" y="644.58"></text>
    <text font-size="12.7998" style="fill: #000000;text-anchor:end;font-family:monospace;font-style:normal;font-weight:normal" x="722.258" y="803.33"></text>
  </g>
  <g>
    <polyline style="fill: none; fill-opacity:0; stroke-width: 2; stroke: #000000" points="638.828,648.58 629,648.58 629,920.096 726.674,920.096 "/>
    <polygon style="fill: #000000" points="664,648.58 650,653.38 636,648.58 650,643.78 "/>
    <polygon style="fill: none; fill-opacity:0; stroke-width: 2; stroke: #000000" points="664,648.58 650,653.38 636,648.58 650,643.78 "/>
    <text font-size="12.7998" style="fill: #000000;text-anchor:start;font-family:monospace;font-style:normal;font-weight:normal" x="631" y="780.338"></text>
    <text font-size="12.7998" style="fill: #000000;text-anchor:end;font-family:monospace;font-style:normal;font-weight:normal" x="632" y="644.58"></text>
    <text font-size="12.7998" style="fill: #000000;text-anchor:end;font-family:monospace;font-style:normal;font-weight:normal" x="722.674" y="916.096"></text>
  </g>
  <g>
    <polygon style="fill: #ffffff" points="1096.08,514.354 1448.58,514.354 1460.58,526.354 1460.58,580.354 1096.08,580.354 "/>
    <polygon style="fill: none; fill-opacity:0; stroke-width: 2; stroke: #ffa500" points="1096.08,514.354 1448.58,514.354 1460.58,526.354 1460.58,580.354 1096.08,580.354 "/>
    <polyline style="fill: none; fill-opacity:0; stroke-width: 1; stroke: #ffa500" points="1448.58,514.354 1448.58,526.354 1460.58,526.354 "/>
    <text font-size="12.8" style="fill: #000000;text-anchor:start;font-family:monospace;font-style:normal;font-weight:normal" x="1103.08" y="538.004">
      <tspan x="1103.08" y="538.004">Implements a server tick (Invokes the update</tspan>
      <tspan x="1103.08" y="554.004">mehods on the shardlet and NetworkManager, </tspan>
      <tspan x="1103.08" y="570.004">if the NetworkManager is no separated thread)</tspan>
    </text>
  </g>
  <g>
    <path style="fill: none; fill-opacity:0; stroke-width: 2; stroke: #ffa500" d="M 1096.08 514.354 C 1009.88,509.348 1060.79,468.334 959.946,457.479"/>
    <polyline style="fill: none; fill-opacity:0; stroke-width: 2; stroke: #ffa500" points="968.201,453.338 957.723,457.239 967.131,463.281 "/>
  </g>
  <g>
    <polygon style="fill: #ffffff" points="1220.71,782.002 1534.71,782.002 1546.71,794.002 1546.71,832.002 1220.71,832.002 "/>
    <polygon style="fill: none; fill-opacity:0; stroke-width: 2; stroke: #ffa500" points="1220.71,782.002 1534.71,782.002 1546.71,794.002 1546.71,832.002 1220.71,832.002 "/>
    <polyline style="fill: none; fill-opacity:0; stroke-width: 1; stroke: #ffa500" points="1534.71,782.002 1534.71,794.002 1546.71,794.002 "/>
    <text font-size="12.8" style="fill: #000000;text-anchor:start;font-family:monospace;font-style:normal;font-weight:normal" x="1227.71" y="805.652">
      <tspan x="1227.71" y="805.652">NetworkListeners accepts clients on</tspan>
      <tspan x="1227.71" y="821.652">the ports given by GetFrontControllers()</tspan>
    </text>
  </g>
  <g>
    <path style="fill: none; fill-opacity:0; stroke-width: 2; stroke: #ffa500" d="M 1220.71 832.002 C 1164.71,832.402 1081.81,811.33 1010.22,807.565"/>
    <polyline style="fill: none; fill-opacity:0; stroke-width: 2; stroke: #ffa500" points="1018.24,802.98 1007.99,807.447 1017.71,812.966 "/>
  </g>
  <g>
    <rect style="fill: #ffffff" x="1270.04" y="1030.27" width="241" height="44"/>
    <rect style="fill: none; fill-opacity:0; stroke-width: 2; stroke: #000000" x="1270.04" y="1030.27" width="241" height="44"/>
    <text font-size="12.8" style="fill: #000000;text-anchor:middle;font-family:monospace;font-style:normal;font-weight:normal" x="1390.54" y="1045.47">&lt;&lt;interface&gt;&gt;</text>
    <text font-size="16" style="fill: #000000;text-anchor:middle;font-family:sans-serif;font-style:normal;font-weight:700" x="1390.54" y="1066.27">ISocketWrapper</text>
    <rect style="fill: #ffffff" x="1270.04" y="1074.27" width="241" height="8"/>
    <rect style="fill: none; fill-opacity:0; stroke-width: 2; stroke: #000000" x="1270.04" y="1074.27" width="241" height="8"/>
    <rect style="fill: #ffffff" x="1270.04" y="1082.27" width="241" height="68"/>
    <rect style="fill: none; fill-opacity:0; stroke-width: 2; stroke: #000000" x="1270.04" y="1082.27" width="241" height="68"/>
    <text font-size="12.8" style="fill: #000000;text-anchor:start;font-family:monospace;font-style:normal;font-weight:normal" x="1273.04" y="1095.47">+Connect(remoteAddress:string)</text>
    <text font-size="12.8" style="fill: #000000;text-anchor:start;font-family:monospace;font-style:normal;font-weight:normal" x="1273.04" y="1111.47">+Send(data:ubyte[])</text>
    <text font-size="12.8" style="fill: #000000;text-anchor:start;font-family:monospace;font-style:normal;font-weight:normal" x="1273.04" y="1127.47">+Receive(): ubyte[]</text>
    <text font-size="12.8" style="fill: #000000;text-anchor:start;font-family:monospace;font-style:normal;font-weight:normal" x="1273.04" y="1143.47">+Disconnect()</text>
  </g>
  <text font-size="16.9333" style="fill: #000000;text-anchor:start;font-family:sans-serif;font-style:normal;font-weight:normal" x="2636.96" y="338.056">
    <tspan x="2636.96" y="338.056">MVC Utility library</tspan>
  </text>
  <g>
    <rect style="fill: #ffffff" x="843.292" y="209.544" width="248.7" height="44"/>
    <rect style="fill: none; fill-opacity:0; stroke-width: 2; stroke: #000000" x="843.292" y="209.544" width="248.7" height="44"/>
    <text font-size="12.8" style="fill: #000000;text-anchor:middle;font-family:monospace;font-style:normal;font-weight:normal" x="967.642" y="224.744">&lt;&lt;interface&gt;&gt;</text>
    <text font-size="16" style="fill: #000000;text-anchor:middle;font-family:sans-serif;font-style:normal;font-weight:700" x="967.642" y="245.544">IShardletContext</text>
    <rect style="fill: #ffffff" x="843.292" y="253.544" width="248.7" height="8"/>
    <rect style="fill: none; fill-opacity:0; stroke-width: 2; stroke: #000000" x="843.292" y="253.544" width="248.7" height="8"/>
    <rect style="fill: #ffffff" x="843.292" y="261.544" width="248.7" height="20"/>
    <rect style="fill: none; fill-opacity:0; stroke-width: 2; stroke: #000000" x="843.292" y="261.544" width="248.7" height="20"/>
    <text font-size="12.8" style="fill: #000000;text-anchor:start;font-family:monospace;font-style:normal;font-weight:normal" x="846.292" y="274.744">+&lt;&lt;todo&gt;&gt; GetIncomingQueue(): ?</text>
  </g>
  <g>
    <polyline style="fill: none; fill-opacity:0; stroke-width: 2; stroke-dasharray: 8; stroke: #000000" points="967.642,299.78 967.642,343.272 861.95,343.272 861.95,389 "/>
    <polygon style="fill: #ffffff" points="975.642,299.78 967.642,283.78 959.642,299.78 "/>
    <polygon style="fill: none; fill-opacity:0; stroke-width: 2; stroke: #000000" points="975.642,299.78 967.642,283.78 959.642,299.78 "/>
  </g>
  <g>
    <rect style="fill: #ffffff" x="1457.24" y="589.958" width="346.85" height="28"/>
    <rect style="fill: none; fill-opacity:0; stroke-width: 2; stroke: #000000" x="1457.24" y="589.958" width="346.85" height="28"/>
    <text font-size="16" style="fill: #000000;text-anchor:middle;font-family:sans-serif;font-style:normal;font-weight:700" x="1630.66" y="609.958">Some-Kind-Of-Incoming-Outgoing-Queue</text>
    <rect style="fill: #ffffff" x="1457.24" y="617.958" width="346.85" height="8"/>
    <rect style="fill: none; fill-opacity:0; stroke-width: 2; stroke: #000000" x="1457.24" y="617.958" width="346.85" height="8"/>
    <rect style="fill: #ffffff" x="1457.24" y="625.958" width="346.85" height="8"/>
    <rect style="fill: none; fill-opacity:0; stroke-width: 2; stroke: #000000" x="1457.24" y="625.958" width="346.85" height="8"/>
  </g>
  <g>
    <polyline style="fill: none; fill-opacity:0; stroke-width: 2; stroke: #000000" points="861.95,457 861.95,603.958 1452.76,603.958 "/>
    <polyline style="fill: none; fill-opacity:0; stroke-width: 2; stroke: #000000" points="1445,608.958 1455,603.958 1445,598.958 "/>
  </g>
  <g>
    <polyline style="fill: none; fill-opacity:0; stroke-width: 2; stroke: #000000" points="952.274,920.096 1630.66,920.096 1630.66,638.43 "/>
    <polyline style="fill: none; fill-opacity:0; stroke-width: 2; stroke: #000000" points="1635.66,646.194 1630.66,636.194 1625.66,646.194 "/>
  </g>
</svg>
