<?xml version="1.0" encoding="UTF-8" standalone="no"?>
<!DOCTYPE svg PUBLIC "-//W3C//DTD SVG 1.0//EN" "http://www.w3.org/TR/2001/PR-SVG-20010719/DTD/svg10.dtd">
<svg width="47cm" height="14cm" viewBox="280 243 922 278" xmlns="http://www.w3.org/2000/svg" xmlns:xlink="http://www.w3.org/1999/xlink">
  <text font-size="12.8" style="fill: #000000;text-anchor:start;font-family:sans-serif;font-style:normal;font-weight:normal" x="280" y="350">
    <tspan x="280" y="350"></tspan>
  </text>
  <text font-size="12.8" style="fill: #000000;text-anchor:start;font-family:sans-serif;font-style:normal;font-weight:normal" x="280" y="350">
    <tspan x="280" y="350"></tspan>
  </text>
  <g>
    <rect style="fill: #d9d9cd" x="440" y="300" width="40" height="33.3333"/>
    <rect style="fill: none; fill-opacity:0; stroke-width: 2; stroke: #000000" x="440" y="300" width="40" height="33.3333"/>
    <rect style="fill: none; fill-opacity:0; stroke-width: 0.2; stroke: #000000" x="440" y="300" width="40" height="33.3333"/>
    <rect style="fill: #a1a1a1" x="442.222" y="302.222" width="35.5556" height="26.6667"/>
    <rect style="fill: none; fill-opacity:0; stroke-width: 2; stroke: #000000" x="442.222" y="302.222" width="35.5556" height="26.6667"/>
    <rect style="fill: none; fill-opacity:0; stroke-width: 0.2; stroke: #000000" x="442.222" y="302.222" width="35.5556" height="26.6667"/>
    <polygon style="fill: #d9d9cd" points="446.667,333.333 473.333,333.333 466.667,335.556 453.333,335.556 "/>
    <polygon style="fill: none; fill-opacity:0; stroke-width: 2; stroke: #000000" points="446.667,333.333 473.333,333.333 466.667,335.556 453.333,335.556 "/>
    <polygon style="fill: none; fill-opacity:0; stroke-width: 0.2; stroke: #000000" points="446.667,333.333 473.333,333.333 466.667,335.556 453.333,335.556 "/>
    <rect style="fill: #d9d9cd" x="453.333" y="335.556" width="13.3333" height="2.22222"/>
    <rect style="fill: none; fill-opacity:0; stroke-width: 2; stroke: #000000" x="453.333" y="335.556" width="13.3333" height="2.22222"/>
    <rect style="fill: none; fill-opacity:0; stroke-width: 0.2; stroke: #000000" x="453.333" y="335.556" width="13.3333" height="2.22222"/>
    <rect style="fill: #d9d9cd" x="446.667" y="337.778" width="26.6667" height="2.22222"/>
    <rect style="fill: none; fill-opacity:0; stroke-width: 2; stroke: #000000" x="446.667" y="337.778" width="26.6667" height="2.22222"/>
    <rect style="fill: none; fill-opacity:0; stroke-width: 0.2; stroke: #000000" x="446.667" y="337.778" width="26.6667" height="2.22222"/>
  </g>
  <g>
    <rect style="fill: #d9d9cd" x="460" y="360" width="40" height="33.3333"/>
    <rect style="fill: none; fill-opacity:0; stroke-width: 2; stroke: #000000" x="460" y="360" width="40" height="33.3333"/>
    <rect style="fill: none; fill-opacity:0; stroke-width: 0.2; stroke: #000000" x="460" y="360" width="40" height="33.3333"/>
    <rect style="fill: #a1a1a1" x="462.222" y="362.222" width="35.5556" height="26.6667"/>
    <rect style="fill: none; fill-opacity:0; stroke-width: 2; stroke: #000000" x="462.222" y="362.222" width="35.5556" height="26.6667"/>
    <rect style="fill: none; fill-opacity:0; stroke-width: 0.2; stroke: #000000" x="462.222" y="362.222" width="35.5556" height="26.6667"/>
    <polygon style="fill: #d9d9cd" points="466.667,393.333 493.333,393.333 486.667,395.556 473.333,395.556 "/>
    <polygon style="fill: none; fill-opacity:0; stroke-width: 2; stroke: #000000" points="466.667,393.333 493.333,393.333 486.667,395.556 473.333,395.556 "/>
    <polygon style="fill: none; fill-opacity:0; stroke-width: 0.2; stroke: #000000" points="466.667,393.333 493.333,393.333 486.667,395.556 473.333,395.556 "/>
    <rect style="fill: #d9d9cd" x="473.333" y="395.556" width="13.3333" height="2.22222"/>
    <rect style="fill: none; fill-opacity:0; stroke-width: 2; stroke: #000000" x="473.333" y="395.556" width="13.3333" height="2.22222"/>
    <rect style="fill: none; fill-opacity:0; stroke-width: 0.2; stroke: #000000" x="473.333" y="395.556" width="13.3333" height="2.22222"/>
    <rect style="fill: #d9d9cd" x="466.667" y="397.778" width="26.6667" height="2.22222"/>
    <rect style="fill: none; fill-opacity:0; stroke-width: 2; stroke: #000000" x="466.667" y="397.778" width="26.6667" height="2.22222"/>
    <rect style="fill: none; fill-opacity:0; stroke-width: 0.2; stroke: #000000" x="466.667" y="397.778" width="26.6667" height="2.22222"/>
  </g>
  <g>
    <rect style="fill: #d9d9cd" x="440" y="420" width="40" height="33.3333"/>
    <rect style="fill: none; fill-opacity:0; stroke-width: 2; stroke: #000000" x="440" y="420" width="40" height="33.3333"/>
    <rect style="fill: none; fill-opacity:0; stroke-width: 0.2; stroke: #000000" x="440" y="420" width="40" height="33.3333"/>
    <rect style="fill: #a1a1a1" x="442.222" y="422.222" width="35.5556" height="26.6667"/>
    <rect style="fill: none; fill-opacity:0; stroke-width: 2; stroke: #000000" x="442.222" y="422.222" width="35.5556" height="26.6667"/>
    <rect style="fill: none; fill-opacity:0; stroke-width: 0.2; stroke: #000000" x="442.222" y="422.222" width="35.5556" height="26.6667"/>
    <polygon style="fill: #d9d9cd" points="446.667,453.333 473.333,453.333 466.667,455.556 453.333,455.556 "/>
    <polygon style="fill: none; fill-opacity:0; stroke-width: 2; stroke: #000000" points="446.667,453.333 473.333,453.333 466.667,455.556 453.333,455.556 "/>
    <polygon style="fill: none; fill-opacity:0; stroke-width: 0.2; stroke: #000000" points="446.667,453.333 473.333,453.333 466.667,455.556 453.333,455.556 "/>
    <rect style="fill: #d9d9cd" x="453.333" y="455.556" width="13.3333" height="2.22222"/>
    <rect style="fill: none; fill-opacity:0; stroke-width: 2; stroke: #000000" x="453.333" y="455.556" width="13.3333" height="2.22222"/>
    <rect style="fill: none; fill-opacity:0; stroke-width: 0.2; stroke: #000000" x="453.333" y="455.556" width="13.3333" height="2.22222"/>
    <rect style="fill: #d9d9cd" x="446.667" y="457.778" width="26.6667" height="2.22222"/>
    <rect style="fill: none; fill-opacity:0; stroke-width: 2; stroke: #000000" x="446.667" y="457.778" width="26.6667" height="2.22222"/>
    <rect style="fill: none; fill-opacity:0; stroke-width: 0.2; stroke: #000000" x="446.667" y="457.778" width="26.6667" height="2.22222"/>
  </g>
  <g>
    <rect style="fill: #d9d9cd" x="460" y="480" width="40" height="33.3333"/>
    <rect style="fill: none; fill-opacity:0; stroke-width: 2; stroke: #000000" x="460" y="480" width="40" height="33.3333"/>
    <rect style="fill: none; fill-opacity:0; stroke-width: 0.2; stroke: #000000" x="460" y="480" width="40" height="33.3333"/>
    <rect style="fill: #a1a1a1" x="462.222" y="482.222" width="35.5556" height="26.6667"/>
    <rect style="fill: none; fill-opacity:0; stroke-width: 2; stroke: #000000" x="462.222" y="482.222" width="35.5556" height="26.6667"/>
    <rect style="fill: none; fill-opacity:0; stroke-width: 0.2; stroke: #000000" x="462.222" y="482.222" width="35.5556" height="26.6667"/>
    <polygon style="fill: #d9d9cd" points="466.667,513.333 493.333,513.333 486.667,515.556 473.333,515.556 "/>
    <polygon style="fill: none; fill-opacity:0; stroke-width: 2; stroke: #000000" points="466.667,513.333 493.333,513.333 486.667,515.556 473.333,515.556 "/>
    <polygon style="fill: none; fill-opacity:0; stroke-width: 0.2; stroke: #000000" points="466.667,513.333 493.333,513.333 486.667,515.556 473.333,515.556 "/>
    <rect style="fill: #d9d9cd" x="473.333" y="515.556" width="13.3333" height="2.22222"/>
    <rect style="fill: none; fill-opacity:0; stroke-width: 2; stroke: #000000" x="473.333" y="515.556" width="13.3333" height="2.22222"/>
    <rect style="fill: none; fill-opacity:0; stroke-width: 0.2; stroke: #000000" x="473.333" y="515.556" width="13.3333" height="2.22222"/>
    <rect style="fill: #d9d9cd" x="466.667" y="517.778" width="26.6667" height="2.22222"/>
    <rect style="fill: none; fill-opacity:0; stroke-width: 2; stroke: #000000" x="466.667" y="517.778" width="26.6667" height="2.22222"/>
    <rect style="fill: none; fill-opacity:0; stroke-width: 0.2; stroke: #000000" x="466.667" y="517.778" width="26.6667" height="2.22222"/>
  </g>
  <g>
    <rect style="fill: #d9d9cd" x="780" y="340" width="76.6667" height="115"/>
    <rect style="fill: none; fill-opacity:0; stroke-width: 2; stroke: #000000" x="780" y="340" width="76.6667" height="115"/>
    <rect style="fill: none; fill-opacity:0; stroke-width: 0.2; stroke: #000000" x="780" y="340" width="76.6667" height="115"/>
    <rect style="fill: #d9d9cd" x="783.833" y="343.833" width="61.3333" height="46"/>
    <rect style="fill: none; fill-opacity:0; stroke-width: 2; stroke: #000000" x="783.833" y="343.833" width="61.3333" height="46"/>
    <rect style="fill: none; fill-opacity:0; stroke-width: 0.2; stroke: #000000" x="783.833" y="343.833" width="61.3333" height="46"/>
    <line style="fill: none; fill-opacity:0; stroke-width: 0.2; stroke: #000000" x1="783.833" y1="359.167" x2="845.167" y2="359.167"/>
    <line style="fill: none; fill-opacity:0; stroke-width: 0.2; stroke: #000000" x1="845.167" y1="374.5" x2="783.833" y2="374.5"/>
    <rect style="fill: #d9d9cd" x="791.5" y="393.667" width="42.1667" height="23"/>
    <rect style="fill: none; fill-opacity:0; stroke-width: 2; stroke: #000000" x="791.5" y="393.667" width="42.1667" height="23"/>
    <rect style="fill: none; fill-opacity:0; stroke-width: 0.2; stroke: #000000" x="791.5" y="393.667" width="42.1667" height="23"/>
    <line style="fill: none; fill-opacity:0; stroke-width: 0.2; stroke: #000000" x1="780" y1="428.167" x2="856.667" y2="428.167"/>
    <rect style="fill: #00cd00" x="833.667" y="420.5" width="3.83333" height="3.83333"/>
    <rect style="fill: none; fill-opacity:0; stroke-width: 2; stroke: #000000" x="833.667" y="420.5" width="3.83333" height="3.83333"/>
    <rect style="fill: none; fill-opacity:0; stroke-width: 0.2; stroke: #000000" x="833.667" y="420.5" width="3.83333" height="3.83333"/>
    <rect style="fill: #cdcd00" x="841.333" y="420.5" width="3.83333" height="3.83333"/>
    <rect style="fill: none; fill-opacity:0; stroke-width: 2; stroke: #000000" x="841.333" y="420.5" width="3.83333" height="3.83333"/>
    <rect style="fill: none; fill-opacity:0; stroke-width: 0.2; stroke: #000000" x="841.333" y="420.5" width="3.83333" height="3.83333"/>
    <rect style="fill: #cd0000" x="849" y="420.5" width="3.83333" height="3.83333"/>
    <rect style="fill: none; fill-opacity:0; stroke-width: 2; stroke: #000000" x="849" y="420.5" width="3.83333" height="3.83333"/>
    <rect style="fill: none; fill-opacity:0; stroke-width: 0.2; stroke: #000000" x="849" y="420.5" width="3.83333" height="3.83333"/>
    <rect style="fill: #cdcdbd" x="845.167" y="409" width="7.66667" height="7.66667"/>
    <rect style="fill: none; fill-opacity:0; stroke-width: 2; stroke: #000000" x="845.167" y="409" width="7.66667" height="7.66667"/>
    <rect style="fill: none; fill-opacity:0; stroke-width: 0.2; stroke: #000000" x="845.167" y="409" width="7.66667" height="7.66667"/>
    <line style="fill: none; fill-opacity:0; stroke-width: 0.2; stroke: #000000" x1="791.5" y1="405.167" x2="833.667" y2="405.167"/>
    <rect style="fill: #cdcdbd" x="841.333" y="393.667" width="11.5" height="11.5"/>
    <rect style="fill: none; fill-opacity:0; stroke-width: 2; stroke: #000000" x="841.333" y="393.667" width="11.5" height="11.5"/>
    <rect style="fill: none; fill-opacity:0; stroke-width: 0.2; stroke: #000000" x="841.333" y="393.667" width="11.5" height="11.5"/>
    <rect style="fill: #cdcdc1" x="787.667" y="378.333" width="53.6667" height="3.83333"/>
    <rect style="fill: none; fill-opacity:0; stroke-width: 2; stroke: #000000" x="787.667" y="378.333" width="53.6667" height="3.83333"/>
    <rect style="fill: none; fill-opacity:0; stroke-width: 0.2; stroke: #000000" x="787.667" y="378.333" width="53.6667" height="3.83333"/>
    <line style="fill: none; fill-opacity:0; stroke-width: 0.2; stroke: #000000" x1="795.333" y1="397.5" x2="829.833" y2="397.5"/>
    <rect style="fill: #cdcdc1" x="803" y="397.5" width="19.1667" height="3.83333"/>
    <rect style="fill: none; fill-opacity:0; stroke-width: 2; stroke: #000000" x="803" y="397.5" width="19.1667" height="3.83333"/>
    <rect style="fill: none; fill-opacity:0; stroke-width: 0.2; stroke: #000000" x="803" y="397.5" width="19.1667" height="3.83333"/>
    <line style="fill: none; fill-opacity:0; stroke-width: 0.2; stroke: #000000" x1="833.667" y1="386" x2="841.333" y2="386"/>
    <line style="fill: none; fill-opacity:0; stroke-width: 0.2; stroke: #000000" x1="783.833" y1="432" x2="852.833" y2="432"/>
    <line style="fill: none; fill-opacity:0; stroke-width: 0.2; stroke: #000000" x1="852.833" y1="435.833" x2="783.833" y2="435.833"/>
    <line style="fill: none; fill-opacity:0; stroke-width: 0.2; stroke: #000000" x1="783.833" y1="439.667" x2="852.833" y2="439.667"/>
    <line style="fill: none; fill-opacity:0; stroke-width: 0.2; stroke: #000000" x1="852.833" y1="451.167" x2="783.833" y2="451.167"/>
    <line style="fill: none; fill-opacity:0; stroke-width: 0.2; stroke: #000000" x1="783.833" y1="447.333" x2="852.833" y2="447.333"/>
    <line style="fill: none; fill-opacity:0; stroke-width: 0.2; stroke: #000000" x1="852.833" y1="443.5" x2="783.833" y2="443.5"/>
    <line style="fill: none; fill-opacity:0; stroke-width: 0.2; stroke: #000000" x1="787.667" y1="386" x2="791.5" y2="386"/>
    <line style="fill: none; fill-opacity:0; stroke-width: 0.2; stroke: #000000" x1="795.333" y1="386" x2="799.167" y2="386"/>
    <line style="fill: none; fill-opacity:0; stroke-width: 0.2; stroke: #000000" x1="795.333" y1="401.333" x2="799.167" y2="401.333"/>
    <line style="fill: none; fill-opacity:0; stroke-width: 0.2; stroke: #000000" x1="826" y1="401.333" x2="829.833" y2="401.333"/>
  </g>
  <g>
    <rect style="fill: #ffffff" x="1100" y="354.853" width="101" height="89.1176"/>
    <ellipse style="fill: #ffffff" cx="1150.5" cy="443.971" rx="50.5" ry="14.8529"/>
    <ellipse style="fill: #ffffff" cx="1150.5" cy="354.853" rx="50.5" ry="14.8529"/>
    <ellipse style="fill: none; fill-opacity:0; stroke-width: 2; stroke: #000000" cx="1150.5" cy="354.853" rx="50.5" ry="14.8529"/>
    <path style="fill: none; fill-opacity:0; stroke-width: 2; stroke: #000000" d="M 1201 354.853 L 1201,443.971 C 1201,452.174 1178.39,458.824 1150.5,458.824 C 1122.61,458.824 1100,452.174 1100,443.971 L 1100,354.853"/>
    <text font-size="12.8" style="fill: #000000;text-anchor:middle;font-family:sans-serif;font-style:normal;font-weight:normal" x="1150.5" y="471.624">
      <tspan x="1150.5" y="471.624"></tspan>
    </text>
  </g>
  <line style="fill: none; fill-opacity:0; stroke-width: 2; stroke: #000000" x1="480" y1="320" x2="780" y2="397.5"/>
  <line style="fill: none; fill-opacity:0; stroke-width: 2; stroke: #000000" x1="500" y1="380" x2="779.025" y2="398.477"/>
  <line style="fill: none; fill-opacity:0; stroke-width: 2; stroke: #000000" x1="480" y1="440" x2="780" y2="397.5"/>
  <line style="fill: none; fill-opacity:0; stroke-width: 2; stroke: #000000" x1="500" y1="500" x2="780" y2="397.5"/>
  <line style="fill: none; fill-opacity:0; stroke-width: 2; stroke: #000000" x1="856.666" y1="397.5" x2="1099.01" y2="399.03"/>
  <text font-size="16.9333" style="fill: #000000;text-anchor:start;font-family:sans-serif;font-style:normal;font-weight:normal" x="420" y="260">
    <tspan x="420" y="260">Client-Level</tspan>
  </text>
  <text font-size="16.9333" style="fill: #000000;text-anchor:start;font-family:sans-serif;font-style:normal;font-weight:normal" x="740" y="260">
    <tspan x="740" y="260">RShard-Level (Server)</tspan>
  </text>
  <text font-size="16.9333" style="fill: #000000;text-anchor:start;font-family:sans-serif;font-style:normal;font-weight:normal" x="1080" y="260">
    <tspan x="1080" y="260">Database-Level</tspan>
  </text>
</svg>
